<svg viewBox="0 0 108 48" xmlns="http://www.w3.org/2000/svg" xmlns:xlink="http://www.w3.org/1999/xlink" width="108.000000" height="48.000000" fill="none">
	<defs>
		<g id="pixso_custom_effect_0">
			<effect x="0.000000" y="4.000000" visibility="visible" fill="rgb(0,0,0)" fill-opacity="0.25" effectType="dropShadow" stdDeviation="4" radius="0" />
		</g>
		<filter id="filter_0" width="108.000000" height="48.000000" x="0.000000" y="0.000000" filterUnits="userSpaceOnUse" customEffect="url(#pixso_custom_effect_0)" color-interpolation-filters="sRGB">
			<feFlood flood-opacity="0" result="BackgroundImageFix" />
			<feColorMatrix result="hardAlpha" in="SourceAlpha" type="matrix" values="0 0 0 0 0 0 0 0 0 0 0 0 0 0 0 0 0 0 127 0 " />
			<feOffset dx="0.000000" dy="4.000000" in="hardAlpha" />
			<feGaussianBlur stdDeviation="1.33333337" />
			<feComposite k2="-1" k3="1" in2="hardAlpha" operator="out" />
			<feColorMatrix type="matrix" values="0 0 0 0 0 0 0 0 0 0 0 0 0 0 0 0 0 0 0.25 0 " />
			<feBlend result="effect_dropShadow_1" in2="BackgroundImageFix" mode="normal" />
			<feBlend result="shape" in="SourceGraphic" in2="effect_dropShadow_1" mode="normal" />
		</filter>
		<clipPath id="clipPath_0">
			<rect width="100.000000" height="40.000000" x="4.000000" y="0.000000" fill="rgb(255,255,255)" />
		</clipPath>
	</defs>
	<g clip-path="url(#clipPath_0)" filter="url(#filter_0)" customFrame="url(#clipPath_0)">
		<rect id="unnamed 1" width="100.000000" height="40.000000" x="4.000000" y="0.000000" fill="rgb(255,255,255)" fill-opacity="0" />
		<g id="Group">
			<path id="Vector" d="M11.6414 32.0412C11.6336 32.0412 11.6257 32.05 11.6179 32.0677L11.6149 32.0706C11.6135 32.0746 11.6136 32.0789 11.6152 32.0831C11.6168 32.0873 11.6199 32.0913 11.6242 32.0947C11.6285 32.0982 11.6339 32.101 11.64 32.103C11.646 32.1049 11.6526 32.1059 11.659 32.1059L47.7385 32.0912C47.7554 32.0909 47.7719 32.086 47.7862 32.0768C47.8004 32.0677 47.8119 32.0548 47.8192 32.0395C47.8265 32.0242 47.8295 32.0072 47.8277 31.9904C47.8259 31.9735 47.8194 31.9575 47.809 31.9441L35.362 16.7971C35.3392 16.7695 35.3272 16.7346 35.3283 16.6989C35.3294 16.6632 35.3435 16.6291 35.3679 16.603L45.1973 6.33533C45.297 6.22992 45.3635 6.09691 45.3885 5.95298L45.8855 3.15004C45.9032 3.04612 45.86 2.99415 45.7561 2.99415L40.262 2.99415C40.2169 2.99411 40.1724 3.00384 40.1317 3.02264C40.0911 3.04145 40.0552 3.06887 40.0267 3.10298L31.5532 12.9765C31.4022 13.151 31.3473 13.1245 31.3885 12.8971L33.0914 3.25298C33.1208 3.07847 33.0473 2.99121 32.8708 2.99121L27.3885 2.99121C27.3499 2.99128 27.3126 3.00485 27.2831 3.02957C27.2535 3.05429 27.2336 3.0886 27.2267 3.12651L22.6326 29.15C22.6169 29.2481 22.559 29.303 22.459 29.3147C20.3767 29.5716 18.2679 29.802 16.1326 30.0059C15.8836 30.0314 15.6267 30.0912 15.362 30.1853C15.3365 30.1951 15.3365 30.2 15.362 30.2L28.212 30.2C28.2563 30.2 28.2991 30.1844 28.333 30.1558C28.3669 30.1273 28.3897 30.0878 28.3973 30.0441L30.312 19.2C30.3155 19.1812 30.3243 19.1638 30.3375 19.1498C30.3506 19.1358 30.3675 19.1259 30.386 19.1213C30.4046 19.1166 30.4242 19.1174 30.4423 19.1236C30.4605 19.1297 30.4765 19.1409 30.4885 19.1559L39.0502 30.2294C39.0584 30.2397 39.0636 30.252 39.0652 30.265C39.0668 30.278 39.0647 30.2913 39.0592 30.3032C39.0537 30.3151 39.045 30.3252 39.0341 30.3325C39.0231 30.3397 39.0104 30.3438 38.9973 30.3442L11.6414 32.0412Z" fill-rule="nonzero" stroke="rgb(240,133,139)" stroke-width="0.588235319" />
			<path id="Vector" d="M50.0279 23.9051C50.0108 23.897 49.9957 23.8853 49.9836 23.8707C49.9716 23.8561 49.9628 23.8391 49.9581 23.8207C49.9533 23.8024 49.9527 23.7833 49.9561 23.7647L53.5679 3.15587C53.5713 3.13726 53.5706 3.11813 53.5659 3.09981C53.5611 3.0815 53.5524 3.06445 53.5403 3.04987C53.5283 3.03529 53.5132 3.02352 53.4961 3.01541C53.479 3.0073 53.4603 3.00304 53.4414 3.00293L47.359 3.00587C47.3289 3.00605 47.2998 3.01672 47.2767 3.03605C47.2537 3.05538 47.238 3.08215 47.2326 3.11175L43.5973 23.7765C43.5941 23.7952 43.5951 23.8144 43.6002 23.8327C43.6053 23.851 43.6143 23.8679 43.6267 23.8823L48.7796 30.1617C48.7918 30.1765 48.8071 30.1884 48.8243 30.1965C48.8416 30.2046 48.8605 30.2088 48.8796 30.2088L59.5884 30.2118C59.6185 30.2116 59.6477 30.2009 59.6707 30.1816C59.6938 30.1622 59.7094 30.1355 59.7149 30.1059L60.7973 24.0735C60.8008 24.0547 60.8 24.0353 60.7951 24.0167C60.7902 23.9982 60.7812 23.981 60.7688 23.9664C60.7564 23.9517 60.7409 23.94 60.7235 23.9321C60.706 23.9242 60.687 23.9202 60.6679 23.9206L50.0826 23.9176C50.0636 23.9175 50.045 23.9133 50.0279 23.9051Z" fill-rule="nonzero" stroke="rgb(240,133,139)" stroke-width="0.588235319" />
			<path id="Vector" d="M72.5708 33.0529C49.7003 33.9646 26.8316 34.8872 3.96496 35.8205C3.92574 35.8225 3.90711 35.8333 3.90908 35.8529C3.90908 35.8587 3.91496 35.8617 3.92672 35.8617L82.5503 35.8323C82.5681 35.8326 82.5855 35.8278 82.6006 35.8184C82.6156 35.8089 82.6277 35.7953 82.6354 35.779C82.6431 35.7627 82.6461 35.7444 82.644 35.7263C82.642 35.7081 82.6349 35.6908 82.6238 35.6764L69.2767 19.4352C69.259 19.4128 69.2469 19.3864 69.2416 19.3583C69.2364 19.3303 69.238 19.3014 69.2465 19.2743C69.2549 19.2473 69.2699 19.2228 69.29 19.2032C69.3102 19.1835 69.3349 19.1693 69.362 19.1617C71.9061 18.444 73.065 16.7911 73.7591 14.3087C74.1846 12.7833 74.4865 11.2499 74.665 9.70874C74.8532 8.0911 74.6855 6.06463 73.5414 4.79404C72.3708 3.49404 69.8355 3.06757 68.1179 3.03816C65.8414 3.0009 62.5542 2.99404 58.2561 3.01757C58.1659 3.01757 58.113 3.06267 58.0973 3.15286L57.4767 6.65286C57.4737 6.66888 57.4743 6.68536 57.4786 6.70114C57.4828 6.71693 57.4905 6.73164 57.5011 6.74425C57.5118 6.75686 57.5251 6.76706 57.5402 6.77413C57.5553 6.78121 57.5718 6.785 57.5885 6.78522L60.2797 6.7911C60.3755 6.79095 60.4744 6.82202 60.5667 6.88129C60.6589 6.94056 60.7414 7.02601 60.8061 7.12934C60.9061 7.28816 61.0708 7.36463 61.2855 7.36169C63.1306 7.34208 64.9208 7.33914 66.6561 7.35286C67.1355 7.3558 67.4767 7.52051 67.7208 7.94992C67.8404 8.1558 67.9277 8.28424 67.9826 8.33521C68.0591 8.4058 68.1493 8.43718 68.2532 8.42933C69.2267 8.36169 70.5326 8.3411 70.1326 9.85286C70.1278 9.87177 70.1157 9.88809 70.0988 9.89848C70.0818 9.90887 70.0613 9.91254 70.0414 9.90875L69.9385 9.8911C69.8581 9.87737 69.8248 9.83031 69.8385 9.74992C69.9424 9.19306 69.7679 8.90581 69.315 8.88816C69.064 8.87835 68.7463 8.87737 68.362 8.88522C68.3413 8.88528 68.3209 8.89019 68.3025 8.89956C68.284 8.90893 68.2679 8.92251 68.2554 8.93927C68.2429 8.95603 68.2343 8.97551 68.2304 8.99623C68.2264 9.01694 68.2272 9.03833 68.2326 9.05875C68.7699 10.9999 69.0816 12.2225 69.1679 12.7264C69.265 13.2911 69.3208 14.9999 68.8032 15.5293C68.7267 15.6078 68.6346 15.647 68.5267 15.647L65.3385 15.647C65.3118 15.6471 65.2854 15.6416 65.261 15.6308C65.2366 15.62 65.2147 15.6041 65.1967 15.5841C65.1786 15.5642 65.165 15.5407 65.1565 15.515C65.148 15.4894 65.1448 15.4622 65.1473 15.4352C65.2855 13.9646 64.2473 12.9646 62.8414 13.3882C61.9748 13.647 61.5708 14.348 61.6297 15.4911C61.6355 15.5872 61.5905 15.6352 61.4944 15.6352L55.9973 15.6352C55.9663 15.6349 55.9361 15.6461 55.9124 15.6666C55.8886 15.6871 55.8728 15.7156 55.8679 15.747L54.7679 21.9676C54.7653 21.9822 54.766 21.9973 54.7698 22.0117C54.7737 22.0261 54.7806 22.0395 54.7901 22.0509C54.7996 22.0624 54.8115 22.0717 54.8249 22.0781C54.8383 22.0845 54.853 22.088 54.8679 22.0882L60.7944 22.0882C60.8421 22.0883 60.8883 22.0719 60.9249 22.0418C60.9615 22.0116 60.9861 21.9698 60.9944 21.9235L61.412 19.5558C61.4159 19.5317 61.4268 19.5092 61.4432 19.491C61.4597 19.4729 61.481 19.46 61.5047 19.4538C61.5283 19.4475 61.5533 19.4483 61.5765 19.456C61.5997 19.4636 61.6202 19.4779 61.6355 19.497L72.6738 32.9323C72.6789 32.9393 72.6818 32.9475 72.6824 32.9559C72.6829 32.9642 72.6809 32.9724 72.6767 32.9793C72.6493 33.0264 72.614 33.0509 72.5708 33.0529Z" fill-rule="nonzero" stroke="rgb(240,133,139)" stroke-width="0.588235319" />
			<path id="Vector" d="M57.318 7.83606C57.2981 7.85221 57.2845 7.87485 57.2797 7.90002L56.8414 10.2059C56.8384 10.2218 56.8389 10.2382 56.843 10.2539C56.8471 10.2696 56.8546 10.2841 56.865 10.2965C56.8754 10.309 56.8885 10.3189 56.9033 10.3256C56.918 10.3323 56.9341 10.3356 56.9503 10.3353L64.8209 10.3383C64.8465 10.3387 64.8714 10.3301 64.8914 10.314C64.9113 10.2978 64.9248 10.2752 64.9297 10.25L65.3679 7.94414C65.371 7.92823 65.3705 7.91184 65.3664 7.89615C65.3623 7.88047 65.3548 7.8659 65.3444 7.8535C65.3339 7.84109 65.3209 7.83117 65.3061 7.82447C65.2914 7.81776 65.2753 7.81444 65.2591 7.81473L57.3885 7.81179C57.3629 7.81132 57.3379 7.81992 57.318 7.83606Z" fill-rule="nonzero" stroke="rgb(240,133,139)" stroke-width="0.588235319" />
			<path id="Vector" d="M67.612 8.84697C67.3826 8.13325 66.9002 7.79795 66.1649 7.84109C66.0453 7.84697 65.9748 7.90972 65.9532 8.02933L65.3091 11.6852C65.3069 11.6969 65.3074 11.709 65.3104 11.7205C65.3133 11.7321 65.3188 11.7428 65.3264 11.7521C65.3339 11.7613 65.3434 11.7688 65.3541 11.774C65.3648 11.7792 65.3765 11.782 65.3885 11.7823L68.1414 11.7823C68.1635 11.7825 68.1854 11.7776 68.2054 11.7679C68.2253 11.7583 68.2429 11.7442 68.2568 11.7267C68.2706 11.7092 68.2804 11.6887 68.2854 11.6667C68.2904 11.6448 68.2904 11.6219 68.2855 11.5999C68.0032 10.2881 67.7787 9.3705 67.612 8.84697Z" fill-rule="nonzero" stroke="rgb(240,133,139)" stroke-width="0.588235319" />
			<path id="Vector" d="M101.327 23.4383C101.297 23.6324 101.382 23.7295 101.58 23.7295L103.453 23.7295C103.663 23.7295 103.789 23.6265 103.83 23.4206C103.975 22.701 103.896 22.0893 103.595 21.5853C103.334 21.152 102.844 20.8912 102.124 20.803C99.2151 20.4471 95.6151 20.703 95.8916 24.5C95.9563 25.3667 96.4514 25.8834 97.3769 26.05C98.2514 26.2069 99.0877 26.3432 99.8857 26.4589C100.166 26.5 100.429 26.5951 100.674 26.7442C100.762 26.7971 100.814 26.8745 100.83 26.9765C101.05 28.4442 99.5092 28.3442 98.3975 28.2559C97.8112 28.2089 97.5818 27.9647 97.7092 27.5236C97.7759 27.3 97.6926 27.1883 97.4592 27.1883L95.5945 27.1883C95.3533 27.1883 95.2269 27.3098 95.2151 27.553C95.1651 28.7295 95.2122 29.8912 96.6122 30.1765C97.5729 30.3706 98.6514 30.4206 99.8475 30.3265C101.192 30.2206 102.433 30.0706 102.939 28.9353C103.211 28.3177 103.385 27.6147 103.459 26.8265C103.544 25.9187 103.148 25.3422 102.274 25.0971C101.39 24.85 100.329 24.6187 99.0916 24.403C98.5151 24.3049 98.3141 23.9618 98.4886 23.3736C98.5671 23.1147 98.7367 22.951 98.9975 22.8824C99.4935 22.751 100.116 22.7304 100.865 22.8206C101.069 22.8442 101.192 22.8912 101.233 22.9618C101.319 23.1128 101.35 23.2716 101.327 23.4383Z" fill-rule="nonzero" stroke="rgb(240,133,139)" stroke-width="0.588235319" />
			<path id="Vector" d="M83.2091 25.4027C83.2111 25.3635 83.2307 25.3399 83.268 25.3321C84.468 25.0527 84.7415 24.2262 84.9356 23.1292C85.2415 21.3733 84.3974 20.7674 82.7562 20.7615C80.8778 20.7537 79.1415 20.7517 77.5474 20.7556C77.4395 20.7556 77.3758 20.8095 77.3562 20.9174L76.4915 25.8056C76.4739 25.9154 76.5003 26.0135 76.5709 26.0997L79.8121 30.0468C79.8827 30.1311 79.9719 30.1791 80.0797 30.1909C80.9837 30.2948 81.8503 30.2272 82.6797 29.988C83.9474 29.6233 84.3562 27.9674 84.368 26.738C84.3768 25.9792 84.0121 25.5792 83.2768 25.5086C83.2552 25.5066 83.2395 25.4958 83.2297 25.4762C83.216 25.4429 83.2091 25.4184 83.2091 25.4027Z" fill-rule="nonzero" stroke="rgb(240,133,139)" stroke-width="0.588235319" />
			<path id="Vector" d="M89.1061 28.1235C88.465 28.047 88.2013 27.6902 88.315 27.0529C88.8738 23.8863 89.2424 21.8176 89.4209 20.847C89.4326 20.7863 89.4071 20.7559 89.3444 20.7559L87.012 20.7559C86.9796 20.7559 86.9483 20.7672 86.9236 20.7876C86.8988 20.808 86.8823 20.8364 86.8767 20.8676C86.312 24.0068 85.9218 26.2666 85.7062 27.647C85.3914 29.647 86.4944 30.1794 88.2032 30.3176C89.1581 30.396 90.1052 30.3647 91.0444 30.2235C93.1209 29.9117 93.6591 28.6764 93.9826 26.8206C94.5081 23.8186 94.8611 21.8284 95.0415 20.85C95.0513 20.7872 95.0258 20.7559 94.965 20.7559L92.612 20.7559C92.5434 20.7559 92.5032 20.7902 92.4914 20.8588C91.9307 24.0196 91.5973 26.0166 91.4914 26.85C91.4228 27.3872 91.1875 27.7559 90.7856 27.9559C90.3914 28.1519 89.8316 28.2078 89.1061 28.1235Z" fill-rule="nonzero" stroke="rgb(240,133,139)" stroke-width="0.588235319" />
			<path id="Vector" d="M64.3192 14.2339C64.077 13.9917 63.7486 13.8557 63.4062 13.8557C63.2366 13.8557 63.0687 13.8891 62.9121 13.954C62.7554 14.0189 62.6131 14.114 62.4932 14.2339C62.3733 14.3538 62.2782 14.4961 62.2133 14.6528C62.1484 14.8094 62.115 14.9773 62.115 15.1469C62.115 15.3164 62.1484 15.4843 62.2133 15.641C62.2782 15.7977 62.3733 15.94 62.4932 16.0599C62.6131 16.1798 62.7554 16.2749 62.9121 16.3398C63.0687 16.4047 63.2366 16.4381 63.4062 16.4381C63.7486 16.4381 64.077 16.302 64.3192 16.0599C64.5613 15.8177 64.6973 15.4893 64.6973 15.1469C64.6973 14.8044 64.5613 14.476 64.3192 14.2339Z" fill-rule="nonzero" stroke="rgb(240,133,139)" stroke-width="0.588235319" />
			<path id="Vector" d="M79.3239 24.5644L81.468 24.5644C81.921 24.5644 82.1876 24.3408 82.268 23.8938L82.3386 23.4908C82.4151 23.0536 82.2318 22.835 81.7886 22.835L79.6621 22.835C79.5857 22.835 79.5406 22.8732 79.5268 22.9497L79.2563 24.482C79.2465 24.5369 79.269 24.5644 79.3239 24.5644Z" fill-rule="nonzero" stroke="rgb(240,133,139)" stroke-width="0.588235319" />
			<path id="Vector" d="M78.6374 28.0764C78.6412 28.0908 78.6481 28.1042 78.6576 28.1156C78.6671 28.1271 78.679 28.1364 78.6924 28.1428C78.7059 28.1492 78.7205 28.1527 78.7354 28.1529L80.8972 28.1529C81.4031 28.1529 81.6992 27.9048 81.7854 27.4087L81.8501 27.0382C81.9345 26.5676 81.7374 26.3323 81.259 26.3323L79.0001 26.3323C78.957 26.3323 78.9315 26.3529 78.9237 26.394L78.6354 28.0323C78.6329 28.0469 78.6335 28.062 78.6374 28.0764Z" fill-rule="nonzero" stroke="rgb(240,133,139)" stroke-width="0.588235319" />
		</g>
		<path id="Vector" d="M128.706 -55.8823L128.706 94.7059L-21.8821 94.7059L-21.8821 -55.8823L128.706 -55.8823ZM38.9973 30.3441L11.6414 32.0412C11.6336 32.0412 11.6258 32.05 11.6179 32.0677L11.615 32.0706C11.6135 32.0746 11.6136 32.0789 11.6152 32.0831C11.6168 32.0873 11.6199 32.0913 11.6242 32.0947C11.6285 32.0982 11.6339 32.101 11.64 32.1029C11.6461 32.1049 11.6526 32.1059 11.6591 32.1059L47.7385 32.0912C47.7554 32.0909 47.772 32.0859 47.7862 32.0768C47.8005 32.0677 47.8119 32.0548 47.8193 32.0395C47.8266 32.0242 47.8295 32.0072 47.8277 31.9904C47.8259 31.9735 47.8195 31.9575 47.8091 31.9441L35.362 16.7971C35.3393 16.7695 35.3273 16.7346 35.3284 16.6989C35.3295 16.6632 35.3435 16.6291 35.3679 16.603L45.1973 6.33532C45.2971 6.2299 45.3636 6.0969 45.3885 5.95297L45.8856 3.15003C45.9032 3.04611 45.8601 2.99414 45.7561 2.99414L40.262 2.99414C40.2169 2.9941 40.1724 3.00383 40.1318 3.02263C40.0911 3.04144 40.0553 3.06886 40.0267 3.10297L31.5532 12.9765C31.4022 13.151 31.3473 13.1245 31.3885 12.8971L33.0914 3.25296C33.1209 3.07845 33.0473 2.9912 32.8709 2.9912L27.3885 2.9912C27.35 2.99127 27.3127 3.00484 27.2831 3.02956C27.2536 3.05428 27.2336 3.08858 27.2267 3.1265L22.6326 29.15C22.6169 29.2481 22.5591 29.303 22.4591 29.3147C20.3767 29.5716 18.2679 29.802 16.1326 30.0059C15.8836 30.0314 15.6267 30.0912 15.362 30.1853C15.3365 30.1951 15.3365 30.2 15.362 30.2L28.212 30.2C28.2563 30.2 28.2992 30.1843 28.3331 30.1558C28.367 30.1273 28.3897 30.0878 28.3973 30.0441L30.312 19.2C30.3155 19.1812 30.3244 19.1637 30.3375 19.1498C30.3506 19.1358 30.3675 19.1259 30.3861 19.1213C30.4047 19.1166 30.4242 19.1174 30.4424 19.1236C30.4605 19.1297 30.4765 19.1409 30.4885 19.1559L39.0503 30.2294C39.0585 30.2397 39.0637 30.252 39.0653 30.265C39.0668 30.278 39.0648 30.2913 39.0593 30.3032C39.0538 30.3151 39.0451 30.3252 39.0341 30.3325C39.0232 30.3397 39.0104 30.3438 38.9973 30.3441ZM50.0826 23.9177C50.0637 23.9176 50.045 23.9133 50.0279 23.9052C50.0108 23.8971 49.9957 23.8853 49.9837 23.8707C49.9716 23.8561 49.9629 23.8391 49.9581 23.8208C49.9534 23.8025 49.9527 23.7833 49.9562 23.7647L53.5679 3.15591C53.5714 3.1373 53.5707 3.11817 53.5659 3.09985C53.5612 3.08154 53.5525 3.06449 53.5404 3.04991C53.5283 3.03532 53.5132 3.02356 53.4961 3.01545C53.479 3.00734 53.4604 3.00308 53.4414 3.00297L47.3591 3.00591C47.329 3.00609 47.2999 3.01676 47.2768 3.03609C47.2537 3.05541 47.2381 3.08218 47.2326 3.11179L43.5973 23.7765C43.5942 23.7952 43.5952 23.8144 43.6002 23.8327C43.6053 23.851 43.6144 23.868 43.6267 23.8824L48.7797 30.1618C48.7918 30.1765 48.8071 30.1884 48.8244 30.1965C48.8417 30.2047 48.8606 30.2089 48.8797 30.2088L59.5885 30.2118C59.6186 30.2116 59.6477 30.2009 59.6708 30.1816C59.6939 30.1623 59.7095 30.1355 59.715 30.1059L60.7973 24.0736C60.8008 24.0547 60.8001 24.0353 60.7952 24.0168C60.7902 23.9983 60.7812 23.981 60.7689 23.9664C60.7565 23.9518 60.741 23.9401 60.7235 23.9322C60.7061 23.9242 60.6871 23.9203 60.6679 23.9206L50.0826 23.9177ZM72.6767 32.9794C72.6493 33.0265 72.614 33.051 72.5709 33.053C49.7003 33.9647 26.8316 34.8873 3.96498 35.8206C3.92576 35.8226 3.90714 35.8334 3.9091 35.853C3.9091 35.8588 3.91498 35.8618 3.92674 35.8618L82.5503 35.8324C82.5681 35.8327 82.5855 35.8279 82.6006 35.8185C82.6157 35.8091 82.6277 35.7954 82.6354 35.7791C82.6431 35.7628 82.6461 35.7445 82.644 35.7264C82.642 35.7082 82.635 35.6909 82.6238 35.6765L69.2767 19.4353C69.259 19.4129 69.2469 19.3865 69.2417 19.3584C69.2364 19.3304 69.238 19.3015 69.2465 19.2744C69.2549 19.2474 69.2699 19.2229 69.29 19.2033C69.3102 19.1836 69.3349 19.1694 69.362 19.1618C71.9062 18.4441 73.065 16.7912 73.7591 14.3088C74.1846 12.7834 74.4865 11.25 74.665 9.70885C74.8532 8.0912 74.6856 6.06473 73.5414 4.79414C72.3709 3.49414 69.8356 3.06767 68.1179 3.03826C65.8414 3.00101 62.5542 2.99414 58.2561 3.01767C58.166 3.01767 58.113 3.06277 58.0973 3.15297L57.4767 6.65297C57.4737 6.66898 57.4744 6.68546 57.4786 6.70124C57.4828 6.71703 57.4905 6.73174 57.5011 6.74435C57.5118 6.75696 57.5251 6.76716 57.5402 6.77423C57.5553 6.78131 57.5718 6.7851 57.5885 6.78532L60.2797 6.7912C60.3755 6.79105 60.4744 6.82212 60.5667 6.88139C60.6589 6.94066 60.7414 7.02612 60.8062 7.12944C60.9062 7.28826 61.0709 7.36473 61.2856 7.36179C63.1307 7.34218 64.9209 7.33924 66.6562 7.35297C67.1356 7.35591 67.4767 7.52061 67.7209 7.95002C67.8405 8.15591 67.9277 8.28434 67.9826 8.33532C68.0591 8.40591 68.1493 8.43728 68.2532 8.42944C69.2267 8.36179 70.5326 8.3412 70.1326 9.85297C70.1279 9.87188 70.1157 9.88819 70.0988 9.89858C70.0819 9.90897 70.0613 9.91264 70.0414 9.90885L69.9385 9.8912C69.8581 9.87748 69.8248 9.83041 69.8385 9.75002C69.9424 9.19316 69.7679 8.90591 69.315 8.88826C69.064 8.87846 68.7463 8.87748 68.362 8.88532C68.3413 8.88538 68.321 8.89029 68.3025 8.89966C68.284 8.90903 68.2679 8.92261 68.2554 8.93937C68.2429 8.95613 68.2343 8.97562 68.2304 8.99633C68.2264 9.01704 68.2272 9.03842 68.2326 9.05885C68.7699 11 69.0816 12.2226 69.1679 12.7265C69.265 13.2912 69.3209 15 68.8032 15.5294C68.7267 15.6079 68.6346 15.6471 68.5267 15.6471L65.3385 15.6471C65.3118 15.6472 65.2854 15.6417 65.261 15.6309C65.2366 15.6201 65.2147 15.6042 65.1967 15.5843C65.1787 15.5643 65.165 15.5408 65.1565 15.5151C65.148 15.4895 65.1449 15.4623 65.1473 15.4353C65.2856 13.9647 64.2473 12.9647 62.8414 13.3883C61.9748 13.6471 61.5709 14.3481 61.6297 15.4912C61.6356 15.5873 61.5905 15.6353 61.4944 15.6353L55.9973 15.6353C55.9663 15.635 55.9361 15.6462 55.9124 15.6667C55.8886 15.6872 55.8728 15.7157 55.8679 15.7471L54.7679 21.9677C54.7654 21.9823 54.766 21.9974 54.7699 22.0118C54.7737 22.0262 54.7806 22.0396 54.7901 22.051C54.7996 22.0625 54.8115 22.0718 54.8249 22.0782C54.8383 22.0846 54.853 22.0881 54.8679 22.0883L60.7944 22.0883C60.8421 22.0884 60.8883 22.072 60.9249 22.0419C60.9615 22.0118 60.9861 21.9699 60.9944 21.9236L61.412 19.5559C61.416 19.5318 61.4268 19.5093 61.4432 19.4911C61.4597 19.473 61.481 19.4601 61.5047 19.4539C61.5283 19.4476 61.5533 19.4484 61.5765 19.4561C61.5998 19.4637 61.6203 19.478 61.6356 19.4971L72.6738 32.9324C72.6789 32.9394 72.6818 32.9476 72.6824 32.956C72.6829 32.9643 72.6809 32.9725 72.6767 32.9794ZM57.3885 7.81179C57.3629 7.81133 57.3379 7.81993 57.318 7.83607C57.2981 7.85221 57.2845 7.87486 57.2797 7.90002L56.8414 10.2059C56.8384 10.2218 56.8389 10.2382 56.843 10.2539C56.8471 10.2696 56.8546 10.2842 56.865 10.2966C56.8754 10.309 56.8885 10.3189 56.9033 10.3256C56.918 10.3323 56.9341 10.3356 56.9503 10.3353L64.8209 10.3383C64.8465 10.3387 64.8715 10.3301 64.8914 10.314C64.9113 10.2978 64.9248 10.2752 64.9297 10.25L65.3679 7.94414C65.371 7.92823 65.3705 7.91184 65.3664 7.89616C65.3623 7.88047 65.3548 7.8659 65.3444 7.8535C65.3339 7.8411 65.3209 7.83118 65.3061 7.82447C65.2914 7.81776 65.2753 7.81444 65.2591 7.81473L57.3885 7.81179ZM68.2856 11.6C68.0032 10.2883 67.7787 9.37061 67.612 8.84708C67.3826 8.13336 66.9003 7.79807 66.165 7.8412C66.0454 7.84708 65.9748 7.90983 65.9532 8.02944L65.3091 11.6853C65.307 11.6971 65.3074 11.7091 65.3104 11.7207C65.3134 11.7322 65.3188 11.743 65.3264 11.7522C65.3339 11.7614 65.3434 11.7689 65.3541 11.7741C65.3649 11.7793 65.3766 11.7821 65.3885 11.7824L68.1414 11.7824C68.1636 11.7826 68.1854 11.7777 68.2054 11.7681C68.2254 11.7584 68.2429 11.7443 68.2568 11.7268C68.2706 11.7093 68.2804 11.6888 68.2854 11.6668C68.2904 11.6449 68.2904 11.6221 68.2856 11.6ZM101.233 22.9618C101.319 23.1128 101.35 23.2716 101.327 23.4383C101.297 23.6324 101.382 23.7294 101.58 23.7294L103.453 23.7294C103.663 23.7294 103.789 23.6265 103.83 23.4206C103.975 22.701 103.896 22.0892 103.594 21.5853C103.334 21.152 102.843 20.8912 102.124 20.803C99.215 20.4471 95.615 20.703 95.8914 24.5C95.9561 25.3667 96.4512 25.8834 97.3767 26.05C98.2513 26.2069 99.0875 26.3432 99.8856 26.4588C100.166 26.5 100.429 26.5951 100.674 26.7441C100.762 26.7971 100.814 26.8745 100.83 26.9765C101.05 28.4441 99.5091 28.3441 98.3973 28.2559C97.8111 28.2088 97.5816 27.9647 97.7091 27.5236C97.7757 27.3 97.6924 27.1883 97.4591 27.1883L95.5944 27.1883C95.3532 27.1883 95.2267 27.3098 95.215 27.553C95.165 28.7294 95.212 29.8912 96.612 30.1765C97.5728 30.3706 98.6513 30.4206 99.8473 30.3265C101.191 30.2206 102.433 30.0706 102.939 28.9353C103.211 28.3177 103.385 27.6147 103.459 26.8265C103.543 25.9186 103.148 25.3422 102.274 25.0971C101.389 24.85 100.329 24.6186 99.0914 24.403C98.515 24.3049 98.314 23.9618 98.4885 23.3736C98.5669 23.1147 98.7365 22.951 98.9973 22.8824C99.4934 22.751 100.116 22.7304 100.865 22.8206C101.069 22.8441 101.191 22.8912 101.233 22.9618ZM83.2297 25.4765C83.216 25.4432 83.2091 25.4186 83.2091 25.403C83.2111 25.3637 83.2307 25.3402 83.2679 25.3324C84.4679 25.053 84.7414 24.2265 84.9356 23.1294C85.2414 21.3736 84.3973 20.7677 82.7561 20.7618C80.8777 20.7539 79.1414 20.752 77.5473 20.7559C77.4395 20.7559 77.3758 20.8098 77.3561 20.9177L76.4914 25.8059C76.4738 25.9157 76.5003 26.0137 76.5709 26.1L79.812 30.0471C79.8826 30.1314 79.9718 30.1794 80.0797 30.1912C80.9836 30.2951 81.8503 30.2275 82.6797 29.9883C83.9473 29.6236 84.3561 27.9677 84.3679 26.7383C84.3767 25.9794 84.012 25.5794 83.2767 25.5089C83.2552 25.5069 83.2395 25.4961 83.2297 25.4765ZM90.7856 27.9559C90.3914 28.152 89.8316 28.2079 89.1061 28.1236C88.465 28.0471 88.2013 27.6902 88.315 27.053C88.8738 23.8863 89.2424 21.8177 89.4209 20.8471C89.4326 20.7863 89.4071 20.7559 89.3444 20.7559L87.012 20.7559C86.9796 20.756 86.9483 20.7672 86.9236 20.7877C86.8988 20.8081 86.8823 20.8364 86.8767 20.8677C86.312 24.0069 85.9218 26.2667 85.7061 27.6471C85.3914 29.6471 86.4944 30.1794 88.2032 30.3177C89.1581 30.3961 90.1052 30.3647 91.0444 30.2236C93.1209 29.9118 93.6591 28.6765 93.9826 26.8206C94.5081 23.8186 94.8611 21.8285 95.0414 20.85C95.0512 20.7873 95.0258 20.7559 94.965 20.7559L92.612 20.7559C92.5434 20.7559 92.5032 20.7902 92.4914 20.8588C91.9307 24.0196 91.5973 26.0167 91.4914 26.85C91.4228 27.3873 91.1875 27.7559 90.7856 27.9559Z" fill="rgb(255,255,255)" fill-rule="nonzero" />
		<path id="Vector" d="M38.9972 30.3439C39.0103 30.3435 39.023 30.3395 39.034 30.3322C39.0449 30.325 39.0536 30.3148 39.0591 30.3029C39.0646 30.291 39.0667 30.2778 39.0651 30.2648C39.0635 30.2518 39.0583 30.2394 39.0501 30.2292L30.4883 19.1557C30.4764 19.1407 30.4604 19.1295 30.4422 19.1233C30.4241 19.1172 30.4045 19.1164 30.3859 19.121C30.3673 19.1257 30.3505 19.1356 30.3373 19.1495C30.3242 19.1635 30.3154 19.1809 30.3119 19.1998L28.3972 30.0439C28.3895 30.0875 28.3668 30.1271 28.3329 30.1556C28.299 30.1841 28.2562 30.1998 28.2119 30.1998L15.3619 30.1998C15.3364 30.1998 15.3364 30.1949 15.3619 30.1851C15.6266 30.091 15.8834 30.0312 16.1325 30.0057C18.2677 29.8017 20.3766 29.5714 22.4589 29.3145C22.5589 29.3027 22.6168 29.2478 22.6325 29.1498L27.2266 3.12626C27.2334 3.08835 27.2534 3.05405 27.283 3.02933C27.3125 3.00461 27.3498 2.99104 27.3883 2.99097L32.8707 2.99097C33.0472 2.99097 33.1207 3.07822 33.0913 3.25273L31.3883 12.8969C31.3472 13.1243 31.4021 13.1508 31.553 12.9763L40.0266 3.10273C40.0551 3.06863 40.091 3.0412 40.1316 3.0224C40.1723 3.0036 40.2167 2.99387 40.2619 2.99391L45.756 2.99391C45.8599 2.99391 45.903 3.04587 45.8854 3.14979L45.3883 5.95273C45.3634 6.09667 45.2969 6.22967 45.1972 6.33508L35.3677 16.6027C35.3433 16.6288 35.3293 16.663 35.3282 16.6987C35.3271 16.7344 35.3391 16.7693 35.3619 16.7968L47.8089 31.9439C47.8193 31.9573 47.8257 31.9733 47.8275 31.9901C47.8293 32.007 47.8264 32.024 47.8191 32.0393C47.8118 32.0545 47.8003 32.0674 47.786 32.0766C47.7718 32.0857 47.7553 32.0907 47.7383 32.091L11.6589 32.1057C11.6524 32.1057 11.6459 32.1047 11.6398 32.1027C11.6338 32.1008 11.6284 32.098 11.624 32.0945C11.6197 32.0911 11.6166 32.0871 11.615 32.0829C11.6134 32.0787 11.6133 32.0744 11.6148 32.0704L11.6177 32.0674C11.6256 32.0498 11.6334 32.041 11.6413 32.041L38.9972 30.3439Z" fill="rgb(225,11,23)" fill-rule="nonzero" />
		<path id="Vector" d="M50.0827 23.9176L60.668 23.9206C60.6871 23.9202 60.7061 23.9242 60.7236 23.9321C60.7411 23.94 60.7565 23.9517 60.7689 23.9664C60.7813 23.981 60.7903 23.9982 60.7952 24.0167C60.8001 24.0353 60.8009 24.0547 60.7974 24.0735L59.715 30.1059C59.7096 30.1355 59.6939 30.1622 59.6709 30.1816C59.6478 30.2009 59.6187 30.2116 59.5886 30.2118L48.8797 30.2088C48.8606 30.2088 48.8418 30.2046 48.8245 30.1965C48.8072 30.1884 48.7919 30.1765 48.7797 30.1617L43.6268 23.8823C43.6144 23.8679 43.6054 23.851 43.6003 23.8327C43.5952 23.8144 43.5942 23.7952 43.5974 23.7765L47.2327 3.11175C47.2382 3.08215 47.2538 3.05538 47.2769 3.03605C47.2999 3.01672 47.3291 3.00605 47.3592 3.00587L53.4415 3.00293C53.4604 3.00304 53.4791 3.0073 53.4962 3.01541C53.5133 3.02352 53.5284 3.03529 53.5405 3.04987C53.5525 3.06445 53.5612 3.0815 53.566 3.09981C53.5707 3.11813 53.5714 3.13726 53.568 3.15587L49.9562 23.7647C49.9528 23.7833 49.9535 23.8024 49.9582 23.8207C49.963 23.8391 49.9717 23.8561 49.9837 23.8707C49.9958 23.8853 50.0109 23.897 50.028 23.9051C50.0451 23.9133 50.0638 23.9175 50.0827 23.9176Z" fill="rgb(225,11,23)" fill-rule="nonzero" />
		<path id="Vector" d="M72.6766 32.9793C72.6808 32.9724 72.6828 32.9642 72.6822 32.9559C72.6817 32.9475 72.6787 32.9393 72.6737 32.9323L61.6354 19.497C61.6201 19.4779 61.5996 19.4636 61.5764 19.456C61.5532 19.4483 61.5282 19.4475 61.5045 19.4538C61.4809 19.46 61.4595 19.4729 61.4431 19.491C61.4267 19.5092 61.4158 19.5317 61.4119 19.5558L60.9942 21.9235C60.9859 21.9698 60.9613 22.0116 60.9248 22.0418C60.8882 22.0719 60.842 22.0883 60.7943 22.0882L54.8678 22.0882C54.8529 22.088 54.8382 22.0845 54.8248 22.0781C54.8113 22.0717 54.7995 22.0624 54.79 22.0509C54.7804 22.0395 54.7735 22.0261 54.7697 22.0117C54.7659 21.9973 54.7652 21.9822 54.7678 21.9676L55.8678 15.747C55.8727 15.7156 55.8885 15.6871 55.9122 15.6666C55.936 15.6461 55.9662 15.6349 55.9972 15.6352L61.4943 15.6352C61.5903 15.6352 61.6354 15.5872 61.6295 15.4911C61.5707 14.348 61.9746 13.647 62.8413 13.3882C64.2472 12.9646 65.2854 13.9646 65.1472 15.4352C65.1447 15.4622 65.1478 15.4894 65.1563 15.515C65.1648 15.5407 65.1785 15.5642 65.1965 15.5841C65.2145 15.6041 65.2365 15.62 65.2609 15.6308C65.2853 15.6416 65.3117 15.6471 65.3384 15.647L68.5266 15.647C68.6344 15.647 68.7266 15.6078 68.8031 15.5293C69.3207 14.9999 69.2648 13.2911 69.1678 12.7264C69.0815 12.2225 68.7697 10.9999 68.2325 9.05875C68.2271 9.03833 68.2263 9.01694 68.2302 8.99623C68.2342 8.97551 68.2427 8.95603 68.2552 8.93927C68.2677 8.92251 68.2839 8.90893 68.3023 8.89956C68.3208 8.89019 68.3412 8.88528 68.3619 8.88522C68.7462 8.87737 69.0639 8.87835 69.3148 8.88816C69.7678 8.90581 69.9423 9.19306 69.8384 9.74992C69.8246 9.83031 69.858 9.87737 69.9384 9.8911L70.0413 9.90875C70.0612 9.91254 70.0817 9.90887 70.0987 9.89848C70.1156 9.88809 70.1277 9.87177 70.1325 9.85286C70.5325 8.3411 69.2266 8.36169 68.2531 8.42933C68.1491 8.43718 68.059 8.4058 67.9825 8.33521C67.9276 8.28424 67.8403 8.1558 67.7207 7.94992C67.4766 7.52051 67.1354 7.3558 66.656 7.35286C64.9207 7.33914 63.1305 7.34208 61.2854 7.36169C61.0707 7.36463 60.906 7.28816 60.806 7.12934C60.7413 7.02601 60.6588 6.94056 60.5665 6.88129C60.4743 6.82202 60.3754 6.79095 60.2795 6.7911L57.5884 6.78522C57.5717 6.785 57.5552 6.78121 57.5401 6.77413C57.525 6.76706 57.5117 6.75686 57.501 6.74425C57.4904 6.73164 57.4827 6.71693 57.4784 6.70114C57.4742 6.68536 57.4736 6.66888 57.4766 6.65286L58.0972 3.15286C58.1129 3.06267 58.1658 3.01757 58.256 3.01757C62.5541 2.99404 65.8413 3.0009 68.1178 3.03816C69.8354 3.06757 72.3707 3.49404 73.5413 4.79404C74.6854 6.06463 74.8531 8.0911 74.6648 9.70874C74.4864 11.2499 74.1844 12.7833 73.7589 14.3087C73.0648 16.7911 71.906 18.444 69.3619 19.1617C69.3348 19.1693 69.3101 19.1835 69.2899 19.2032C69.2698 19.2228 69.2548 19.2473 69.2463 19.2743C69.2379 19.3014 69.2362 19.3303 69.2415 19.3583C69.2468 19.3864 69.2589 19.4128 69.2766 19.4352L82.6237 35.6764C82.6348 35.6908 82.6418 35.7081 82.6439 35.7263C82.646 35.7444 82.643 35.7627 82.6353 35.779C82.6276 35.7953 82.6155 35.8089 82.6005 35.8184C82.5854 35.8278 82.5679 35.8326 82.5501 35.8323L3.9266 35.8617C3.91484 35.8617 3.90895 35.8587 3.90895 35.8529C3.90699 35.8333 3.92562 35.8225 3.96483 35.8205C26.8315 34.8872 49.7001 33.9646 72.5707 33.0529C72.6139 33.0509 72.6492 33.0264 72.6766 32.9793ZM64.6972 15.147C64.6972 14.8045 64.5612 14.4761 64.319 14.234C64.0769 13.9918 63.7485 13.8558 63.406 13.8558C63.2365 13.8558 63.0686 13.8892 62.9119 13.9541C62.7552 14.019 62.6129 14.1141 62.493 14.234C62.3731 14.3539 62.278 14.4962 62.2131 14.6529C62.1482 14.8095 62.1148 14.9774 62.1148 15.147C62.1148 15.3165 62.1482 15.4844 62.2131 15.6411C62.278 15.7977 62.3731 15.9401 62.493 16.06C62.6129 16.1799 62.7552 16.275 62.9119 16.3399C63.0686 16.4048 63.2365 16.4382 63.406 16.4382C63.7485 16.4382 64.0769 16.3021 64.319 16.06C64.5612 15.8178 64.6972 15.4894 64.6972 15.147Z" fill="rgb(225,11,23)" fill-rule="nonzero" />
		<path id="Vector" d="M57.3885 7.81179L65.2591 7.81473C65.2753 7.81444 65.2914 7.81776 65.3061 7.82447C65.3209 7.83117 65.3339 7.84109 65.3444 7.8535C65.3548 7.8659 65.3623 7.88047 65.3664 7.89615C65.3705 7.91184 65.371 7.92823 65.3679 7.94414L64.9297 10.25C64.9248 10.2752 64.9113 10.2978 64.8914 10.314C64.8714 10.3301 64.8465 10.3387 64.8209 10.3383L56.9503 10.3353C56.9341 10.3356 56.918 10.3323 56.9033 10.3256C56.8885 10.3189 56.8754 10.309 56.865 10.2965C56.8546 10.2841 56.8471 10.2696 56.843 10.2539C56.8389 10.2382 56.8384 10.2218 56.8414 10.2059L57.2797 7.90002C57.2845 7.87485 57.2981 7.85221 57.318 7.83606C57.3379 7.81992 57.3629 7.81132 57.3885 7.81179Z" fill="rgb(225,11,23)" fill-rule="nonzero" />
		<path id="Vector" d="M68.2855 11.6002C68.2904 11.6222 68.2904 11.645 68.2854 11.667C68.2804 11.6889 68.2706 11.7094 68.2568 11.7269C68.2429 11.7445 68.2253 11.7586 68.2054 11.7682C68.1854 11.7778 68.1635 11.7827 68.1414 11.7825L65.3885 11.7825C65.3765 11.7823 65.3648 11.7795 65.3541 11.7742C65.3434 11.769 65.3339 11.7616 65.3264 11.7523C65.3188 11.7431 65.3133 11.7323 65.3104 11.7208C65.3074 11.7092 65.3069 11.6972 65.3091 11.6854L65.9532 8.02957C65.9748 7.90996 66.0453 7.84722 66.1649 7.84133C66.9002 7.7982 67.3826 8.13349 67.612 8.84722C67.7787 9.37075 68.0032 10.2884 68.2855 11.6002Z" fill="rgb(225,11,23)" fill-rule="nonzero" />
		<path id="Vector" d="M63.406 16.4383C64.1191 16.4383 64.6972 15.8602 64.6972 15.1471C64.6972 14.434 64.1191 13.856 63.406 13.856C62.693 13.856 62.1149 14.434 62.1149 15.1471C62.1149 15.8602 62.693 16.4383 63.406 16.4383Z" fill="rgb(255,255,255)" fill-rule="evenodd" />
		<path id="Vector" d="M100.865 22.8206C100.116 22.7304 99.4933 22.751 98.9972 22.8824C98.7364 22.951 98.5668 23.1147 98.4884 23.3736C98.3139 23.9618 98.5149 24.3049 99.0913 24.403C100.329 24.6187 101.389 24.85 102.274 25.0971C103.148 25.3422 103.543 25.9187 103.459 26.8265C103.384 27.6147 103.211 28.3177 102.938 28.9353C102.433 30.0706 101.191 30.2206 99.8472 30.3265C98.6511 30.4206 97.5727 30.3706 96.6119 30.1765C95.2119 29.8912 95.1649 28.7295 95.2149 27.553C95.2266 27.3098 95.3531 27.1883 95.5943 27.1883L97.459 27.1883C97.6923 27.1883 97.7756 27.3 97.709 27.5236C97.5815 27.9647 97.8109 28.2089 98.3972 28.2559C99.509 28.3442 101.05 28.4442 100.83 26.9765C100.814 26.8745 100.762 26.7971 100.674 26.7442C100.429 26.5951 100.166 26.5 99.8855 26.4589C99.0874 26.3432 98.2511 26.2069 97.3766 26.05C96.4511 25.8834 95.956 25.3667 95.8913 24.5C95.6149 20.703 99.2149 20.4471 102.124 20.803C102.843 20.8912 103.333 21.152 103.594 21.5853C103.896 22.0893 103.975 22.701 103.83 23.4206C103.788 23.6265 103.663 23.7295 103.453 23.7295L101.58 23.7295C101.382 23.7295 101.297 23.6324 101.327 23.4383C101.35 23.2716 101.319 23.1128 101.233 22.9618C101.191 22.8912 101.069 22.8442 100.865 22.8206Z" fill="rgb(225,11,23)" fill-rule="nonzero" />
		<path id="Vector" d="M83.2767 25.5086C84.012 25.5792 84.3767 25.9792 84.3679 26.738C84.3561 27.9674 83.9473 29.6233 82.6796 29.988C81.8502 30.2272 80.9835 30.2948 80.0796 30.1909C79.9718 30.1791 79.8826 30.1311 79.812 30.0468L76.5708 26.0997C76.5002 26.0135 76.4737 25.9154 76.4914 25.8056L77.3561 20.9174C77.3757 20.8095 77.4394 20.7556 77.5473 20.7556C79.1414 20.7517 80.8776 20.7537 82.7561 20.7615C84.3973 20.7674 85.2414 21.3733 84.9355 23.1292C84.7414 24.2262 84.4678 25.0527 83.2679 25.3321C83.2306 25.3399 83.211 25.3635 83.209 25.4027C83.209 25.4184 83.2159 25.4429 83.2296 25.4762C83.2394 25.4958 83.2551 25.5066 83.2767 25.5086ZM79.2561 24.4821C79.2463 24.537 79.2688 24.5644 79.3237 24.5644L81.4678 24.5644C81.9208 24.5644 82.1875 24.3409 82.2678 23.8939L82.3384 23.4909C82.4149 23.0537 82.2316 22.835 81.7884 22.835L79.662 22.835C79.5855 22.835 79.5404 22.8733 79.5267 22.9497L79.2561 24.4821ZM78.6355 28.0321C78.6329 28.0468 78.6336 28.0618 78.6374 28.0762C78.6413 28.0906 78.6482 28.104 78.6577 28.1155C78.6672 28.1269 78.6791 28.1362 78.6925 28.1426C78.7059 28.149 78.7206 28.1525 78.7355 28.1527L80.8973 28.1527C81.4031 28.1527 81.6992 27.9046 81.7855 27.4086L81.8502 27.038C81.9345 26.5674 81.7375 26.3321 81.259 26.3321L79.0002 26.3321C78.9571 26.3321 78.9316 26.3527 78.9237 26.3939L78.6355 28.0321Z" fill="rgb(225,11,23)" fill-rule="nonzero" />
		<path id="Vector" d="M90.7854 27.9559C91.1874 27.7559 91.4227 27.3872 91.4913 26.85C91.5972 26.0166 91.9305 24.0196 92.4913 20.8588C92.5031 20.7902 92.5433 20.7559 92.6119 20.7559L94.9649 20.7559C95.0256 20.7559 95.0511 20.7872 95.0413 20.85C94.8609 21.8284 94.508 23.8186 93.9825 26.8206C93.659 28.6764 93.1207 29.9117 91.0443 30.2235C90.1051 30.3647 89.158 30.396 88.2031 30.3176C86.4943 30.1794 85.3913 29.647 85.706 27.647C85.9217 26.2666 86.3119 24.0068 86.8766 20.8676C86.8821 20.8364 86.8987 20.808 86.9234 20.7876C86.9482 20.7672 86.9795 20.7559 87.0119 20.7559L89.3443 20.7559C89.407 20.7559 89.4325 20.7863 89.4207 20.847C89.2423 21.8176 88.8737 23.8863 88.3149 27.0529C88.2011 27.6902 88.4649 28.047 89.106 28.1235C89.8315 28.2078 90.3913 28.1519 90.7854 27.9559Z" fill="rgb(225,11,23)" fill-rule="nonzero" />
		<path id="Vector" d="M79.2561 24.4825L79.5267 22.9501C79.5405 22.8737 79.5855 22.8354 79.662 22.8354L81.7885 22.8354C82.2316 22.8354 82.415 23.0541 82.3385 23.4913L82.2679 23.8943C82.1875 24.3413 81.9208 24.5649 81.4679 24.5649L79.3238 24.5649C79.2689 24.5649 79.2463 24.5374 79.2561 24.4825Z" fill="rgb(255,255,255)" fill-rule="nonzero" />
		<path id="Vector" d="M78.6353 28.0323L78.9235 26.394C78.9314 26.3529 78.9569 26.3323 79 26.3323L81.2588 26.3323C81.7373 26.3323 81.9343 26.5676 81.85 27.0382L81.7853 27.4087C81.699 27.9048 81.403 28.1529 80.8971 28.1529L78.7353 28.1529C78.7204 28.1527 78.7057 28.1492 78.6923 28.1428C78.6789 28.1364 78.667 28.1271 78.6575 28.1156C78.648 28.1042 78.6411 28.0908 78.6372 28.0764C78.6334 28.062 78.6328 28.0469 78.6353 28.0323Z" fill="rgb(255,255,255)" fill-rule="nonzero" />
	</g>
</svg>
