<svg width="72" height="72" viewBox="0 0 72 72" fill="none" xmlns="http://www.w3.org/2000/svg">
<path d="M20.1046 14.0235C22.5744 13.9622 25.0543 14.0236 27.5252 14.0237L48.9985 14.0239C51.3631 14.0218 53.3312 13.7088 55.1783 15.5315C56.5631 16.8981 56.6231 18.3004 56.6301 20.1061L58.1394 20.1023C60.9533 20.0983 61.1879 20.9191 61.1856 23.5191C63.181 23.445 63.1977 24.1907 63.1912 25.9737L63.1939 29.7904C63.1939 32.3069 62.7411 32.1701 60.4167 32.1694C59.4083 32.1691 57.9722 32.4605 57.6773 31.1078C57.4696 30.1549 57.6063 26.1363 57.6202 24.976C57.6382 23.4747 58.6482 23.4886 59.8514 23.5191L59.8538 23.0361C59.8581 21.583 59.6549 21.4802 58.2208 21.4879L56.6301 21.4951L56.6323 46.8496C56.6337 49.0105 57.1283 51.7617 54.5985 52.7593C54.603 54.3779 55.022 56.6705 53.3209 57.6274C52.4957 58.0916 48.1951 58.0563 47.2991 57.8128C45.7214 57.2718 45.6014 56.0181 45.6003 54.5172L45.6016 52.9609C44.9032 52.9398 44.198 52.9601 43.4989 52.9602L26.6806 52.9609L26.6834 54.0072C26.6892 57.2607 25.8791 57.9381 22.6417 57.9346C18.1218 57.9295 17.5001 57.6444 17.6148 52.9609C14.8563 51.4628 15.4239 50.5229 15.4257 47.518L15.427 21.4951L13.9686 21.4917C11.9607 21.4868 12.1176 21.6502 12.1335 23.5191C13.4301 23.508 14.3062 23.5997 14.3415 25.1101C14.3719 26.3995 14.3451 27.6967 14.3446 28.987C14.3427 32.7976 13.9875 32.15 10.5271 32.1764C8.4687 32.1922 8.90333 30.322 8.90964 28.8449C8.91487 27.6196 8.89233 26.3928 8.90996 25.1678C8.92972 23.7945 9.44698 23.5008 10.7496 23.5191L10.7456 22.6572C10.7533 20.4138 12.0477 20.0593 14.047 20.0894L15.427 20.1061C15.3537 16.7909 16.5316 14.4342 20.1046 14.0235ZM25.7905 15.4538L22.2263 15.4527C21.3476 15.453 20.3249 15.354 19.4726 15.5704C16.6894 16.2771 16.8366 18.6363 16.8373 20.8018L16.8397 42.1227C18.0136 42.1439 19.4709 42.021 20.6048 42.1373C22.9532 42.3782 25.2349 44.5891 25.1392 47.0353C25.0962 48.1335 23.2927 47.7158 22.4548 47.715C20.5866 47.7136 18.7065 47.6689 16.8397 47.7149C16.8353 48.8281 16.434 51.3547 18.0964 51.5548C18.3847 51.5896 18.7016 51.5628 18.9925 51.5603L46.3541 51.5544L51.3277 51.5564C54.8395 51.5572 55.278 51.8029 55.2701 47.7149L49.9792 47.715C49.087 47.7152 48.1908 47.7343 47.2991 47.7149L47.0385 47.5203C46.214 46.2005 48.0174 43.6268 49.1674 42.9135C50.4529 42.1165 51.6974 42.1208 53.1481 42.1207L55.2701 42.1227C55.2431 40.2633 55.2701 38.3995 55.2701 36.5397L55.2712 21.0556C55.2714 20.2106 55.3403 19.2894 55.1992 18.4551C54.6554 15.2408 51.7892 15.4508 49.4264 15.4526L25.7905 15.4538ZM48.843 52.9609H47.0385C47.0366 53.6148 46.9604 55.2412 47.0812 55.7848C47.2961 56.7519 48.3903 56.5037 49.1279 56.4978L51.3462 56.4955C53.8499 56.5266 53.1921 55.1368 53.1713 52.9609H48.843ZM19.0548 52.9609C19.0489 54.5594 18.475 56.5587 20.6344 56.5131C21.6398 56.4919 24.2193 56.7166 24.8723 56.135C25.561 55.3479 25.2032 53.9186 25.2295 52.9609C23.1747 52.9616 21.1084 53.0099 19.0548 52.9609ZM51.6292 43.5232C50.0186 43.7303 48.7587 44.7538 48.3263 46.3172H52.0142H55.2701C55.2352 45.9676 55.261 45.6009 55.2646 45.2491L55.2701 43.5232L53.0492 43.5198C52.5788 43.5168 52.0982 43.4921 51.6292 43.5232ZM59.0283 24.9266V30.8244C59.9525 30.823 60.8882 30.7907 61.811 30.8244C61.8679 30.2174 61.8123 29.574 61.8116 28.9621L61.811 24.9266H59.0283ZM16.8397 43.5232V46.3172H23.6174C22.8902 43.856 21.1015 43.5218 18.9478 43.5209L16.8397 43.5232ZM10.3115 24.9266C10.2531 26.8599 10.3163 28.8804 10.3115 30.8244L12.0862 30.8296C12.354 30.8313 12.6753 30.8668 12.9374 30.8244V24.9266H10.3115Z" fill="#7AF2A6"/>
<path d="M27.1767 46.3172C28.2425 46.2552 29.478 46.3175 30.5603 46.3178L42.4277 46.3154C43.3931 46.3141 44.9842 45.9972 45.6007 46.7591C45.56 47.2396 45.4913 47.6498 44.9382 47.7149L29.2735 47.7152C28.8722 47.7153 27.1753 47.8316 26.8677 47.6346C26.2306 47.2265 26.5055 46.4382 27.1767 46.3172Z" fill="#7AF2A6"/>
<path d="M27.03 40.9935L43.3162 40.9932C43.8964 40.9929 45.8367 40.6906 45.5201 41.8233C45.4375 42.1185 45.2705 42.2532 45.0131 42.4C44.4323 42.4665 43.7821 42.4028 43.1926 42.4018L31.1306 42.4001C29.9086 42.4001 28.6785 42.4322 27.4576 42.4072C26.3844 42.3851 26.154 41.2861 27.03 40.9935Z" fill="#7AF2A6"/>
<path d="M27.1771 43.6538H45.0123C45.6121 43.985 45.8039 44.8043 45.0123 45.0714L28.903 45.071C28.3859 45.0712 27.8381 45.1212 27.3259 45.0906C26.2813 45.0281 26.1933 43.8946 27.1771 43.6538Z" fill="#7AF2A6"/>
<path d="M35.0493 20.9569L52.8756 20.9585C53.3967 20.9634 53.972 20.9402 54.0006 21.5961C54.0433 22.5776 54.0003 23.5802 53.9996 24.5641L53.9988 35.692C53.999 36.5326 54.046 37.3933 53.999 38.2307C53.4337 38.9197 52.3835 38.6774 51.5939 38.6758L37.1056 38.6733L20.7018 38.6734C19.6282 38.6739 18.0609 39.1039 18.0017 37.7591C17.9612 36.8393 18.0044 35.9023 18.0044 34.9802L18.0037 24.3584C18.002 23.4722 17.9598 22.5634 18.0148 21.6797C18.0831 20.5784 19.6938 20.9544 20.5996 20.955L35.0493 20.9569ZM37.4226 22.3652C37.1783 22.3702 36.9353 22.3737 36.6911 22.3652V37.2493H52.0119C52.2086 37.2482 52.4086 37.2403 52.605 37.2493V22.3652C50.9136 22.3864 49.2199 22.365 47.5282 22.3649L37.4226 22.3652ZM26.784 22.3652H19.4378V37.2493H28.0055H35.2797V22.3652H26.784Z" fill="#7AF2A6"/>
</svg>
