<svg width="72" height="72" viewBox="0 0 72 72" fill="none" xmlns="http://www.w3.org/2000/svg">
<path d="M48.8515 13.9552C49.4902 14.0216 51.4131 16.2479 51.9783 16.8099L61.5249 26.3454C63.8736 28.6822 63.6257 28.0893 61.1995 30.5421L58.5585 33.2059C57.9879 33.774 57.5358 34.4465 56.7138 34.6179C56.1662 34.4233 55.7073 33.8171 55.2883 33.4178C54.0506 34.9772 51.7856 36.7687 50.3089 38.2333C49.6644 38.8725 49.035 39.5311 48.3639 40.1428C49.2681 41.2791 50.9022 42.3498 51.5475 43.5825C53.0733 46.4975 50.1272 49.8579 46.9818 48.7962C46.7093 51.3073 44.4088 53.1783 42.0124 52.0575C41.9703 54.0405 40.2676 55.5996 38.3087 55.6691C36.6146 55.729 35.8587 54.756 34.7417 53.7019C34.065 54.5287 32.4293 56.1967 31.5909 56.9173C29.1382 59.0247 25.2641 57.0862 25.5602 53.5178C23.3822 53.7365 22.1448 52.4898 21.338 50.5624C21.3359 50.0552 21.3317 49.5481 21.338 49.0409C18.3829 49.1286 16.3082 46.0282 17.9178 43.6001C18.5119 42.7036 21.5614 39.7468 22.3524 39.165C21.4337 37.8904 17.9083 34.548 16.6776 33.4178C14.9717 34.8578 15.5785 35.3779 13.5537 33.3321L10.9709 30.7263C10.5814 30.3297 10.1935 29.9309 9.79824 29.5401C9.28963 29.0371 8.38136 28.4463 9.08606 27.6971C9.69679 27.0477 10.3853 26.4472 11.0161 25.8127L21.4105 15.4666C23.1171 13.7962 22.7187 13.4505 24.3979 15.1349L28.309 19.0094C29.2171 19.9254 30.0209 20.1046 29.1711 21.0786C31.4831 20.9776 34.3722 21.3353 36.0892 23.03C38.4477 20.9919 41.8977 21.772 43.0169 20.9867C42.7756 20.8101 42.4865 20.5466 42.5077 20.2227C42.7257 19.7975 44.6001 18.0449 45.0402 17.6009C45.8296 16.805 47.9827 14.3332 48.8515 13.9552ZM27.8366 22.2434C27.3093 22.7081 26.8199 23.2184 26.3211 23.7136L17.743 32.3083C19.6157 34.4322 22.0054 36.6301 24.0243 38.6414C26.6766 38.3251 28.4423 41.0303 27.629 43.4974C30.2866 43.6403 31.3086 45.5583 31.286 47.9901C33.7908 47.7811 35.2248 49.7361 35.2249 52.0575C35.6825 52.4841 36.6979 53.5954 37.1682 53.8696C39.0388 54.96 40.8171 53.1792 40.4538 51.0112C40.1382 50.6136 39.7312 50.2606 39.3716 49.9013L37.2638 47.8059C36.8595 47.4068 36.4047 47.015 36.0892 46.5397C36.3836 46.1718 36.7484 45.8485 37.0789 45.512C38.1825 46.5725 41.1677 49.8738 42.3162 50.5657C43.9924 51.5755 45.8404 49.8482 45.4789 48.0887C45.1956 47.2006 44.1203 46.4597 43.4887 45.8246C42.3664 44.6961 41.2533 43.5544 40.1026 42.455C40.4716 42.1035 40.8431 41.753 41.1982 41.3875C42.4499 42.5866 43.7677 43.8891 44.9892 45.1259C45.5089 45.6521 46.557 46.8453 47.1112 47.2068C48.5415 48.1399 50.5167 46.8787 50.4499 45.1995C50.4079 44.1447 49.7544 43.6918 49.0554 43.008L40.6937 34.7217C39.7025 33.733 38.6507 32.7929 37.7276 31.7403C36.5608 32.6077 35.698 33.8455 34.5344 34.6961C31.2174 37.1211 26.8829 33.002 29.2528 29.6342C29.5629 29.1935 29.9844 28.826 30.3681 28.45L31.7022 27.1305C32.709 26.1339 33.8205 24.9244 34.8721 24.0052C31.8129 21.8928 30.0166 23.2283 27.8366 22.2434ZM44.1367 22.2434C43.0235 22.8396 42.2498 22.8309 41.0075 22.8777C37.972 22.9923 36.6615 24.4361 34.6929 26.3007C33.4035 27.5219 31.8011 28.9565 30.631 30.2843C28.971 32.1677 31.4152 34.8088 33.5367 33.5895C34.552 33.0061 36.6818 30.5059 37.7276 29.5819C38.521 30.4537 40.7891 32.8456 41.644 33.4178C42.4683 34.6362 46.1304 38.0277 47.323 39.165C47.8544 38.5418 48.4979 37.9886 49.0824 37.4138L52.7375 33.8088C53.2502 33.3058 53.8103 32.8335 54.2986 32.3083C53.4933 31.6223 52.7579 30.8171 52.0015 30.0753L46.4708 24.543C45.8224 23.8953 44.8718 22.742 44.1367 22.2434ZM48.8515 15.9844C48.4051 16.2823 48.0299 16.695 47.6493 17.0712L45.9834 18.7439C45.4534 19.2802 44.8418 19.7764 44.408 20.3954C44.9251 20.8055 45.3824 21.3104 45.8473 21.778L56.5895 32.5332C56.6653 32.608 56.7681 32.7393 56.8713 32.7545L56.8911 32.743L61.3684 28.2712C60.9399 27.9288 60.5524 27.5195 60.164 27.1325L51.722 18.71C51.1429 18.1287 49.4809 16.3243 48.8515 15.9844ZM23.0455 15.9844C21.9562 16.955 20.9595 18.0577 19.9234 19.0853L13.7716 25.1916C12.7463 26.2133 11.7451 27.2779 10.6937 28.2712C11.0243 28.6957 11.4715 29.0779 11.8518 29.4609L13.9796 31.6367C14.1297 31.7877 15.0971 32.7665 15.1664 32.743C16.1332 31.8971 17.1006 30.8216 18.0246 29.9053L26.4105 21.4914C26.7933 21.1129 27.181 20.6965 27.629 20.3954C26.5559 19.4989 23.904 16.4528 23.0455 15.9844ZM24.1857 40.1428C22.8713 40.1467 22.2314 41.2332 21.3385 42.1317C20.7383 42.7355 19.314 44.0009 19.0166 44.7068C18.4478 46.0571 19.6642 47.4871 21.1064 47.5694C22.6173 47.53 23.7112 45.8349 24.759 44.7708C25.5169 44.0011 26.4263 43.3777 26.3762 42.167C26.3314 41.0842 25.3329 39.9712 24.1857 40.1428ZM27.2515 44.9731C26.1066 45.1912 23.5546 47.9083 23.0525 48.6907C22.09 50.1905 23.4989 52.0772 25.4218 52.0575C26.6037 51.796 28.936 49.2608 29.4669 48.418C30.5036 46.7727 29.0512 44.8428 27.2515 44.9731ZM31.1769 49.4734C30.117 49.696 27.8158 52.1586 27.3064 52.9329C26.3013 54.4608 27.6999 56.4317 29.6702 56.205C30.7504 55.9897 32.8742 53.6712 33.4187 52.866C34.4883 51.2841 33.1262 49.3855 31.1769 49.4734Z" fill="#7AF2A6"/>
</svg>
