<svg width="64" height="64" viewBox="0 0 64 64" fill="none" xmlns="http://www.w3.org/2000/svg">
<path d="M11.0195 44.5285C11.1417 44.4649 11.2418 44.4098 11.3271 44.2955C11.4924 44.3263 11.6351 44.2822 11.7938 44.2955C11.7414 44.5069 11.6903 44.7182 11.6435 44.9308C11.4282 44.8221 11.2216 44.6616 11.0195 44.5285Z" fill="#7AF2A6"/>
<path d="M11.4577 43.1094C11.4814 43.334 11.5655 43.5528 11.6445 43.7633H12.0292C11.9365 43.938 11.8479 44.1028 11.7948 44.2944C11.6361 44.2811 11.4934 44.3252 11.3281 44.2944C11.4063 43.9095 11.4197 43.5008 11.4577 43.1094Z" fill="#7AF2A6"/>
<path d="M45.2542 29.9724C46.0303 29.9306 46.7686 29.9124 47.5361 29.8789V31.4683L45.188 31.4708C44.864 31.4714 44.4889 31.5149 44.1719 31.4683C44.6684 31.0455 44.912 30.5117 45.2542 29.9724Z" fill="#7AF2A6"/>
<path d="M41.5304 29.8791L41.5517 29.902C42.1989 30.614 42.2288 30.8343 43.0248 31.4685C42.6376 31.5156 42.2012 31.4727 41.8081 31.4715L39.0781 31.4685V29.8791C39.8954 29.877 40.7133 29.8941 41.5304 29.8791Z" fill="#7AF2A6"/>
<path d="M11.0204 44.5285C9.24109 43.5357 7.87503 41.8068 8.90227 39.7488C10.0687 37.4118 13.3209 36.5207 15.6093 35.752C15.9014 36.2703 16.2683 36.7688 16.5253 37.3029C14.873 37.7793 10.8928 38.8922 10.308 40.7688C10.0892 41.4709 10.4576 42.1161 11.1438 42.337C11.3157 42.5726 11.3822 42.834 11.4576 43.1105C11.4196 43.5019 11.4062 43.9106 11.328 44.2955C11.2427 44.4098 11.1426 44.4649 11.0204 44.5285Z" fill="#7AF2A6"/>
<path d="M25.768 39.6128C26.0316 39.2381 26.3048 38.2679 26.6657 38.0586C28.554 38.3295 31.4391 39.5064 32.5555 41.0034C33.751 42.6066 33.2947 44.1454 31.7321 45.2883C27.91 48.0837 15.5702 48.2167 11.6445 44.9293C11.6913 44.7167 11.7424 44.5054 11.7948 44.294C11.8479 44.1024 11.9365 43.9376 12.0292 43.7629C12.4335 43.2731 13.7698 44.1556 14.2512 44.3336C18.4938 45.9023 25.3439 46.2547 29.4443 44.4993C30.9478 43.8557 32.3512 43.178 30.7802 41.7327C29.311 40.381 27.5058 40.2689 25.768 39.6128Z" fill="#7AF2A6"/>
<path d="M28.3981 32.8536C29.5025 32.8445 32.22 33.8843 33.2192 34.451C33.5835 34.5485 35.5228 35.5014 35.8592 35.7502C38.2971 36.8985 40.9975 38.72 41.1007 41.7185C41.3011 47.5424 29.6228 51.4986 24.7177 51.6655C24.6107 51.1116 24.647 50.5525 24.5117 49.9975C28.7637 49.6614 37.3683 46.9409 39.1905 42.9978C41.012 39.0563 32.9888 36.009 30.4058 35.1175C29.5098 34.8083 28.5479 34.6508 27.6866 34.2482C27.8369 33.85 28.1754 33.2257 28.3981 32.8536Z" fill="#7AF2A6"/>
<path d="M33.2188 34.4531C33.583 34.5506 35.5223 35.5035 35.8587 35.7523C35.2796 35.6566 33.6641 34.8505 33.2188 34.4531Z" fill="#7AF2A6"/>
<path d="M49.239 26.1172C49.7298 26.1488 50.2411 26.3443 50.7068 26.4975C52.8625 27.2064 56.4606 28.6412 56.2609 31.477C56.0409 34.6008 51.1176 35.6996 48.7944 36.2454C49.84 40.5056 47.5097 44.1627 44.4539 46.8799C40.2432 50.6242 34.643 53.0043 29.186 54.3285C28.3096 54.5412 27.3448 54.8003 26.4374 54.7872C26.4594 54.2406 26.4183 53.6756 26.3652 53.1312C32.5353 51.8537 38.1467 50.0299 43.0729 45.822C45.5562 43.7008 48.0245 40.5183 47.3233 37.0395C47.1496 36.178 46.5562 36.5582 45.8602 36.6159C44.0368 36.7672 37.6287 36.5436 35.8603 35.7508C35.5239 35.502 33.5846 34.5491 33.2203 34.4516C32.9104 34.2398 32.5742 34.0523 32.2803 33.8198C30.934 32.7544 30.6563 30.7923 31.6318 29.3935C32.5457 28.0832 35.8258 26.484 37.5 26.3313C37.7302 26.7962 38.0052 27.3712 38.1856 27.8546C35.8802 28.3028 30.0596 30.41 34.0854 33.0019C36.7353 34.7079 42.0402 35.149 45.1434 34.9697C47.5531 34.8304 52.9774 34.0726 54.3097 31.9415C55.814 29.5353 49.733 28.0373 48.4057 27.6188C48.7061 27.1322 48.9287 26.594 49.239 26.1172Z" fill="#7AF2A6"/>
<path d="M19.7464 41.0606C17.4179 38.3505 15.3318 35.1481 14.0961 31.7858C12.6397 27.8224 14.9645 23.412 18.8764 22.0017C25.2898 19.6896 31.4839 26.3908 28.3994 32.8532C28.1767 33.2253 27.8382 33.8496 27.6879 34.2478C26.8919 35.7267 26.0103 37.1323 25.0557 38.5134C24.488 39.3348 23.8239 40.1325 23.3392 41.0034H24.4026V42.7469H17.7897C17.8147 42.1881 17.7816 41.6208 17.7897 41.0606C18.4423 41.0488 19.0941 41.0707 19.7464 41.0606ZM20.9295 23.3425C17.8526 23.7488 15.0026 26.721 15.4268 29.8931C15.7929 32.6301 19.5934 38.1653 21.451 40.2937L21.7049 39.981C23.4967 37.6926 27.8686 31.9399 27.4781 28.8327C27.0719 25.6006 24.1711 23.1726 20.9295 23.3425Z" fill="#7AF2A6"/>
<path d="M21.2433 25.5745C22.0869 25.4434 23.0797 25.8301 23.7236 26.3609C26.2497 28.4434 24.8611 32.4733 21.7051 32.7327C16.9197 32.8999 16.4833 25.9037 21.2433 25.5745ZM21.3538 27.3565C18.9183 27.5935 19.2003 30.9016 21.5932 30.8779C23.8913 30.7266 23.7561 27.4262 21.3538 27.3565Z" fill="#7AF2A6"/>
<path d="M41.5312 29.8791C39.2378 27.0543 35.533 21.5257 34.9313 17.9549C34.4838 15.2994 36.0791 12.1884 38.1052 10.5743C41.8396 7.59904 47.1597 8.11786 50.1396 11.9031C51.3533 13.4448 52.3279 15.7075 52.0782 17.7053C51.6254 21.3297 47.6014 27.0874 45.2549 29.9726C44.9127 30.5119 44.6691 31.0457 44.1726 31.4685C43.797 31.5585 43.3991 31.5767 43.0256 31.4685C42.2296 30.8343 42.1997 30.614 41.5525 29.902L41.5312 29.8791ZM42.7961 10.4687C39.3508 11.0002 36.1128 14.1782 36.7083 17.7995C37.1579 20.5335 41.268 27.0854 43.4723 29.3912C43.5792 29.2613 43.6848 29.1311 43.7873 28.9977L43.8101 28.9616C44.2751 28.2349 44.8904 27.5863 45.3978 26.8851C47.2266 24.3576 50.8498 19.137 50.206 16.0939C49.4569 12.5534 46.365 10.2636 42.7961 10.4687Z" fill="#7AF2A6"/>
<path d="M43.0248 13.4811C48.1384 13.1969 48.9236 20.2068 43.9768 21.0935C38.8918 21.6814 38.0227 14.1215 43.0248 13.4811ZM43.4715 15.2627C40.7282 15.5105 40.74 19.4016 43.7865 19.282C46.5929 18.8029 45.5925 15.032 43.4715 15.2627Z" fill="#7AF2A6"/>
</svg>
