<svg width="62" height="20" viewBox="0 0 62 20" fill="none" xmlns="http://www.w3.org/2000/svg">
<g clip-path="url(#clip0_640_3214)">
<path d="M9.19226 2.80774C13.6281 2.80774 17.1923 6.40723 17.1923 10.8077C17.1923 15.2082 13.6281 18.8077 9.19226 18.8077C4.75637 18.8077 1.19226 15.2082 1.19226 10.8077C1.19226 6.40723 4.75637 2.80774 9.19226 2.80774Z" stroke="#8E8E8E" stroke-width="2.38462"/>
<path d="M50.9231 2.80774C55.3589 2.80774 58.9231 6.40723 58.9231 10.8077C58.9231 15.2082 55.3589 18.8077 50.9231 18.8077C46.4873 18.8077 42.9231 15.2082 42.9231 10.8077C42.9231 6.40723 46.4873 2.80774 50.9231 2.80774Z" stroke="#088537" stroke-width="2.38462"/>
<path d="M55 11C55 8.79086 53.2091 7 51 7C48.7909 7 47 8.79086 47 11C47 13.2091 48.7909 15 51 15C53.2091 15 55 13.2091 55 11Z" fill="#088537"/>
<path d="M21 9.99999L37.6923 10" stroke="#7AF2A6" stroke-width="2.38462" stroke-linecap="round" stroke-linejoin="round" stroke-dasharray="3.58 3.58"/>
</g>
<defs>
<clipPath id="clip0_640_3214">
<rect width="20.2692" height="62" fill="white" transform="matrix(0 -1 1 0 0 20)"/>
</clipPath>
</defs>
</svg>
