<svg width="72" height="72" viewBox="0 0 72 72" fill="none" xmlns="http://www.w3.org/2000/svg">
<path d="M63.1455 35.9175C63.1455 39.4822 62.4433 43.0121 61.0792 46.3054C59.715 49.5988 57.7155 52.5913 55.1949 55.1119C52.6742 57.6325 49.6818 59.632 46.3884 60.9962C43.095 62.3604 39.5652 63.0625 36.0005 63.0625C28.8012 63.0625 21.8967 60.2026 16.8061 55.1119C11.7154 50.0212 8.85547 43.1168 8.85547 35.9175C8.85547 28.7182 11.7154 21.8138 16.8061 16.7231C21.8967 11.6324 28.8012 8.77249 36.0005 8.77249C43.1998 8.77249 50.1042 11.6324 55.1949 16.7231C60.2856 21.8138 63.1455 28.7182 63.1455 35.9175ZM61.363 35.9175C61.363 29.1909 58.6909 22.7399 53.9345 17.9835C49.1781 13.2271 42.727 10.555 36.0005 10.555C29.2739 10.555 22.8229 13.2271 18.0665 17.9835C13.3101 22.7399 10.638 29.1909 10.638 35.9175C10.638 42.644 13.3101 49.0951 18.0665 53.8515C22.8229 58.6079 29.2739 61.28 36.0005 61.28C42.727 61.28 49.1781 58.6079 53.9345 53.8515C58.6909 49.0951 61.363 42.644 61.363 35.9175Z" fill="#7AF2A6"/>
<path d="M48.251 20.89C50.6293 22.595 52.3377 24.7967 53.376 27.495C54.9177 31.5083 54.786 35.4242 52.981 39.2425C51.2643 42.8758 48.421 45.4325 44.451 46.9125C44.4438 46.9153 44.4361 46.9166 44.4284 46.9163C44.4206 46.916 44.4131 46.9142 44.4061 46.9109C44.3991 46.9077 44.3928 46.903 44.3876 46.8973C44.3825 46.8915 44.3785 46.8848 44.376 46.8775L43.841 45.3075C43.8332 45.2857 43.8347 45.2616 43.845 45.2405C43.8553 45.2195 43.8736 45.2031 43.896 45.195C49.231 43.29 52.666 38.395 52.6385 32.7575C52.6185 28.6325 50.551 24.745 47.2085 22.3475C43.8635 19.9525 39.516 19.2475 35.6035 20.5575C30.2585 22.345 26.7285 27.1725 26.641 32.835C26.641 32.8588 26.6317 32.8817 26.6153 32.8986C26.5989 32.9155 26.5767 32.925 26.5535 32.925L24.8935 32.9225C24.8857 32.9225 24.878 32.9209 24.8709 32.9179C24.8638 32.9148 24.8573 32.9104 24.8519 32.9048C24.8466 32.8992 24.8424 32.8925 24.8396 32.8853C24.8369 32.878 24.8357 32.8703 24.836 32.8625C24.961 28.6275 26.4668 25.1125 29.3535 22.3175C32.3885 19.3808 36.0535 17.9967 40.3485 18.165C43.2385 18.2783 45.8727 19.1867 48.251 20.89Z" fill="#7AF2A6"/>
<path d="M43.8966 26.1025L45.0516 27.2825C45.0664 27.2975 45.0747 27.3177 45.0747 27.3388C45.0747 27.3598 45.0664 27.38 45.0516 27.395L39.8466 32.605C39.8391 32.6127 39.8302 32.6188 39.8203 32.623C39.8104 32.6272 39.7998 32.6294 39.7891 32.6294C39.7783 32.6294 39.7677 32.6272 39.7579 32.623C39.748 32.6188 39.739 32.6127 39.7316 32.605L35.4541 28.3125C35.4389 28.2979 35.4302 28.2778 35.4297 28.2568C35.4292 28.2357 35.4371 28.2153 35.4516 28.2L36.5316 27.02C36.5389 27.0117 36.5478 27.0051 36.5579 27.0004C36.5679 26.9958 36.5787 26.9933 36.5898 26.993C36.6008 26.9928 36.6118 26.9949 36.622 26.9991C36.6322 27.0033 36.6414 27.0096 36.6491 27.0175L39.7116 30.0825C39.719 30.0902 39.728 30.0963 39.7379 30.1005C39.7477 30.1047 39.7584 30.1069 39.7691 30.1069C39.7798 30.1069 39.7904 30.1047 39.8003 30.1005C39.8102 30.0963 39.8191 30.0902 39.8266 30.0825L43.7816 26.1025C43.789 26.0948 43.798 26.0887 43.8079 26.0845C43.8177 26.0803 43.8284 26.0781 43.8391 26.0781C43.8498 26.0781 43.8604 26.0803 43.8703 26.0845C43.8802 26.0887 43.8891 26.0948 43.8966 26.1025Z" fill="#7AF2A6"/>
<path d="M42.2802 47.6175C42.2802 47.9238 42.1585 48.2176 41.9419 48.4342C41.7253 48.6508 41.4315 48.7725 41.1252 48.7725H19.4402C19.1338 48.7725 18.8401 48.6508 18.6234 48.4342C18.4068 48.2176 18.2852 47.9238 18.2852 47.6175V35.7275C18.2852 35.4212 18.4068 35.1274 18.6234 34.9108C18.8401 34.6942 19.1338 34.5725 19.4402 34.5725H41.1252C41.4315 34.5725 41.7253 34.6942 41.9419 34.9108C42.1585 35.1274 42.2802 35.4212 42.2802 35.7275V47.6175ZM40.7702 36.1575C40.7702 36.1441 40.7675 36.1307 40.7624 36.1183C40.7572 36.1059 40.7497 36.0946 40.7401 36.085C40.7306 36.0755 40.7193 36.068 40.7069 36.0628C40.6944 36.0577 40.6811 36.055 40.6677 36.055H19.8277C19.8005 36.055 19.7744 36.0658 19.7552 36.085C19.736 36.1043 19.7252 36.1303 19.7252 36.1575V47.2125C19.7252 47.2397 19.736 47.2658 19.7552 47.285C19.7744 47.3042 19.8005 47.315 19.8277 47.315H40.6677C40.6811 47.315 40.6944 47.3124 40.7069 47.3072C40.7193 47.3021 40.7306 47.2945 40.7401 47.285C40.7497 47.2755 40.7572 47.2642 40.7624 47.2517C40.7675 47.2393 40.7702 47.226 40.7702 47.2125V36.1575Z" fill="#7AF2A6"/>
<path d="M30.668 37.85C31.553 37.9933 32.1305 38.4458 32.4005 39.2075C32.5072 39.5108 32.4172 39.7475 32.1305 39.9175C32.0755 39.9508 32.0055 39.9716 31.9205 39.98C31.8079 39.9925 31.6941 39.9687 31.5953 39.9121C31.4965 39.8556 31.4179 39.7691 31.3705 39.665C31.1989 39.2833 31.078 39.0616 31.008 39C30.8797 38.8833 30.7589 38.8516 30.6455 38.905C30.5722 38.94 30.5355 38.9983 30.5355 39.08V40.41C30.5354 40.4837 30.5603 40.5553 30.6062 40.613C30.6521 40.6707 30.7162 40.711 30.788 40.7275C31.1497 40.8092 31.513 40.9566 31.878 41.17C32.2114 41.3633 32.4322 41.6491 32.5405 42.0275C32.973 43.52 32.083 44.475 30.6505 44.715C30.5655 44.7283 30.523 44.7783 30.523 44.865V45.74C30.523 45.799 30.5053 45.8567 30.4724 45.9056C30.4394 45.9546 30.3927 45.9927 30.338 46.015C30.3014 46.03 30.273 46.0425 30.253 46.0525C30.2267 46.0647 30.1977 46.07 30.1687 46.0681C30.1397 46.0661 30.1117 46.0568 30.0873 46.0411C30.0628 46.0254 30.0428 46.0037 30.0289 45.9782C30.0151 45.9527 30.0079 45.924 30.008 45.895V44.8825C30.008 44.7708 29.9522 44.7075 29.8405 44.6925C29.1022 44.5992 28.5397 44.2616 28.153 43.68C27.848 43.22 27.633 42.165 28.5105 42.245C28.6274 42.2559 28.7381 42.3021 28.8283 42.3776C28.9185 42.453 28.9837 42.5541 29.0155 42.6675C29.1455 43.1208 29.3897 43.4833 29.748 43.755C29.7722 43.7731 29.8009 43.7841 29.831 43.7868C29.861 43.7895 29.8912 43.7838 29.9182 43.7703C29.9452 43.7568 29.9679 43.7361 29.9838 43.7104C29.9996 43.6847 30.008 43.6552 30.008 43.625V41.81C30.0081 41.7727 29.9966 41.7363 29.9751 41.7059C29.9536 41.6754 29.9232 41.6524 29.888 41.64C28.823 41.2775 27.878 40.865 28.0505 39.5175C28.1722 38.5592 28.7705 38.0141 29.8455 37.8825C29.9772 37.8658 30.033 37.7916 30.013 37.66C29.978 37.435 29.9922 37.2525 30.0555 37.1125C30.0939 37.0275 30.1597 36.9825 30.253 36.9775C30.3347 36.9742 30.4105 37.0042 30.4805 37.0675C30.5002 37.0848 30.5159 37.106 30.5267 37.1297C30.5374 37.1534 30.543 37.1791 30.543 37.205V37.7025C30.543 37.7875 30.5847 37.8366 30.668 37.85ZM29.9955 38.865C29.9956 38.8372 29.9877 38.8099 29.9729 38.7863C29.9581 38.7628 29.9369 38.7439 29.9118 38.7319C29.8867 38.7198 29.8587 38.7151 29.831 38.7184C29.8034 38.7216 29.7772 38.7325 29.7555 38.75L29.243 39.15C29.2245 39.1648 29.2098 39.184 29.2002 39.2057C29.1906 39.2275 29.1865 39.2513 29.188 39.275L29.223 39.9575C29.2239 39.9802 29.23 40.0023 29.2408 40.0223C29.2517 40.0422 29.267 40.0594 29.2855 40.0725L29.7855 40.4175C29.8077 40.4325 29.8336 40.4411 29.8604 40.4425C29.8871 40.4439 29.9137 40.438 29.9374 40.4254C29.961 40.4128 29.9808 40.394 29.9946 40.371C30.0083 40.3481 30.0156 40.3218 30.0155 40.295L29.9955 38.865ZM30.533 41.8825L30.558 43.8025C30.558 43.8065 30.5596 43.8103 30.5624 43.8131C30.5653 43.8159 30.5691 43.8175 30.573 43.8175H30.583C30.7067 43.8159 30.8289 43.7893 30.9425 43.7391C31.0561 43.689 31.1589 43.6163 31.2451 43.5253C31.3313 43.4342 31.3991 43.3266 31.4446 43.2086C31.4902 43.0906 31.5126 42.9645 31.5105 42.8375V42.8175C31.5065 42.562 31.404 42.3186 31.2254 42.1405C31.0469 41.9624 30.8069 41.8642 30.558 41.8675H30.548C30.5441 41.8675 30.5403 41.8691 30.5374 41.8719C30.5346 41.8747 30.533 41.8785 30.533 41.8825Z" fill="#7AF2A6"/>
<path d="M26.252 37.0918L21.532 37.1083C21.1454 37.1096 20.8331 37.4241 20.8345 37.8107L20.8348 37.9107C20.8362 38.2973 21.1507 38.6096 21.5373 38.6083L26.2572 38.5918C26.6438 38.5904 26.9561 38.2759 26.9548 37.8894L26.9544 37.7894C26.9531 37.4028 26.6386 37.0904 26.252 37.0918Z" fill="#7AF2A6"/>
<path d="M39.1728 37.1059L34.4178 37.1142C34.0188 37.1149 33.6959 37.4389 33.6966 37.8379L33.6967 37.8829C33.6973 38.2819 34.0214 38.6049 34.4204 38.6042L39.1754 38.5959C39.5744 38.5952 39.8973 38.2711 39.8966 37.8721L39.8966 37.8271C39.8959 37.4281 39.5718 37.1052 39.1728 37.1059Z" fill="#7AF2A6"/>
<path d="M26.3059 44.8975H21.4959C21.1314 44.8975 20.8359 45.193 20.8359 45.5575V45.6925C20.8359 46.057 21.1314 46.3525 21.4959 46.3525H26.3059C26.6704 46.3525 26.9659 46.057 26.9659 45.6925V45.5575C26.9659 45.193 26.6704 44.8975 26.3059 44.8975Z" fill="#7AF2A6"/>
<path d="M39.2045 44.8983L34.3945 44.9067C34.0148 44.9074 33.7076 45.2157 33.7082 45.5954L33.7084 45.6754C33.709 46.0551 34.0174 46.3624 34.3971 46.3617L39.2071 46.3533C39.5868 46.3526 39.894 46.0443 39.8934 45.6646L39.8932 45.5846C39.8926 45.2049 39.5842 44.8976 39.2045 44.8983Z" fill="#7AF2A6"/>
</svg>
