<svg width="72" height="72" viewBox="0 0 72 72" fill="none" xmlns="http://www.w3.org/2000/svg">
<path d="M15.8003 42.2332L22.0044 42.2336C23.0173 42.2345 24.0398 42.2993 25.0504 42.2332C25.0687 42.8372 25.0518 43.4461 25.0504 44.0507C23.9488 44.2094 22.7323 44.0461 21.6121 44.0507H12.3071C12.2939 43.4457 12.3052 42.8384 12.3071 42.2332C12.8273 42.2696 13.3333 42.2422 13.8535 42.2363L15.8003 42.2332Z" fill="#7AF2A6"/>
<path d="M45.5085 22.6405L51.4558 22.6389C55.6065 22.6385 55.9716 22.4211 55.9697 26.418L55.9672 30.978C55.9618 31.8212 55.891 32.6798 55.9675 33.5198C53.97 32.59 53.9749 33.4728 54.1206 31.0097C53.1225 31.0656 52.1093 31.0093 51.1086 31.0101L44.6418 31.0097C43.7842 31.0076 42.1889 30.9054 41.3984 31.1131C42.0254 30.6487 42.494 29.888 42.8561 29.2086L50.7009 29.2092C51.838 29.2088 52.9857 29.1503 54.1206 29.2086C54.1422 27.6243 54.1208 26.0369 54.1206 24.4521C53.4338 24.4119 52.7289 24.4501 52.0397 24.4505L46.9449 24.4523C46.1035 24.4528 45.2413 24.499 44.4026 24.4521C44.3419 23.8434 44.4348 23.2464 44.4026 22.6405C44.7733 22.6536 45.1376 22.6567 45.5085 22.6405Z" fill="#7AF2A6"/>
<path d="M10.5703 22.6405C11.6672 22.5964 12.7831 22.6393 13.8818 22.6396L20.5274 22.6405C20.5488 23.2463 20.6133 23.8489 20.6696 24.4521H10.5703C10.544 24.99 10.5675 25.5403 10.568 26.0792L10.5703 29.2086L17.9083 29.2079C19.2866 29.2082 20.6843 29.2641 22.0598 29.2086C22.397 29.6966 22.9039 30.7232 23.3711 31.0097C22.3368 31.0372 21.2959 31.0105 20.2607 31.0103L14.0423 31.01C13.0311 31.0101 11.5242 30.9043 10.5703 31.0097L10.5701 40.4945C10.5702 42.1777 10.5041 43.8905 10.5927 45.5698L10.5551 45.6075L10.626 45.6281C10.6251 45.6806 10.6177 45.7341 10.6127 45.7864L10.6432 45.8114L10.666 45.7874C11.3332 45.9873 13.5176 45.8385 14.3514 45.8384L22.5881 45.8382H41.748C41.8068 46.3868 41.777 47.0503 41.7043 47.5985L41.6545 47.6003C41.3083 47.8135 36.9972 47.6683 36.2286 47.6683L13.6759 47.6667C12.6682 47.6668 11.6507 47.7028 10.6445 47.667C8.27949 47.583 8.71924 44.7859 8.72072 43.1885L8.71973 26.3476C8.71957 24.7957 8.54307 22.9479 10.5703 22.6405Z" fill="#7AF2A6"/>
<path d="M31.8938 12.9549C33.6867 12.8521 33.951 13.1107 35.5473 13.9162C37.23 14.7651 38.1342 14.751 39.7191 15.193C40.5129 15.4144 40.6269 16.3878 40.9882 17.0231C42.3963 19.4995 43.0381 18.1382 42.8221 21.6822C42.4511 27.77 39.8352 31.8093 34.6105 35.1725C34.135 35.4786 33.5939 35.7094 33.1792 36.1012C32.0118 36.6329 30.3614 35.1697 29.4039 34.5059C25.7083 31.9436 23.3439 28.67 22.54 24.2109C22.3872 23.363 22.0092 19.7861 22.4194 19.1603C22.6002 18.8846 22.8947 18.6679 23.1332 18.4407C24.448 17.1884 24.4081 16.5684 25.2361 15.3723C25.8006 15.0968 26.4461 15.0276 27.057 14.9015C28.7357 14.5551 31.0393 13.0463 31.8938 12.9549ZM32.1692 14.8078C30.0992 15.5053 29.3207 16.6677 26.5225 16.8708L26.5029 16.91C26.1292 17.6436 25.6083 18.4123 25.0759 19.0407C24.2538 20.0114 24.0679 19.7739 24.1196 21.109C24.3595 27.3136 27.0004 31.4016 32.539 34.3136L32.8495 34.1209C36.422 31.8365 39.626 28.9426 40.567 24.6447C40.8277 23.4536 41.1097 21.4013 40.9651 20.2149C40.8303 19.8795 39.1065 17.4289 38.7484 17.0204C38.4501 16.6801 37.8999 16.7051 37.4916 16.6146C35.6331 16.2032 34.1067 14.8702 32.1692 14.8078Z" fill="#7AF2A6"/>
<path d="M37.0076 23.0626C37.5437 23.0752 38.6524 22.9136 39.0627 23.2684C39.443 23.5972 39.535 24.2779 39.1732 24.6547C38.8761 24.9642 38.2838 24.8869 37.8893 24.8902C37.3016 24.8875 36.1741 25.0047 35.7121 24.6289C34.73 23.8297 35.9795 23.0879 37.0076 23.0626Z" fill="#7AF2A6"/>
<path d="M26.5228 23.0627C27.6383 22.9995 29.2993 22.6872 29.5674 24.0555C29.4174 24.6033 29.1908 24.8305 28.6085 24.8902C28.0587 24.8882 26.4205 25.0195 26.0239 24.7619C25.1618 24.2015 25.6717 23.2083 26.5228 23.0627Z" fill="#7AF2A6"/>
<path d="M31.6532 23.0626C32.1698 23.0438 33.3639 22.9907 33.8251 23.1086C34.8174 23.3623 34.8477 24.9034 33.1781 24.8901C31.8767 24.8816 31.1887 25.2674 30.3867 24.0554C30.6577 23.4845 30.9887 23.1391 31.6532 23.0626Z" fill="#7AF2A6"/>
<path d="M52.1698 34.6522C55.1549 34.4377 58.1874 36.6606 58.7643 39.625C58.8714 40.1757 58.8852 40.7574 58.8977 41.317C61.1589 41.5304 60.9072 41.5353 61.0741 43.962L61.491 49.9022C61.6867 52.5341 61.6292 54.3446 59.5771 56.392C58.0481 57.9174 56.6576 58.0038 54.6277 57.9819L52.4704 57.978L50.0839 57.9825C48.2584 58.0008 46.9525 58.0308 45.4202 56.8047C42.123 54.167 43.2253 50.0665 43.6105 46.503L43.8974 43.9134C44.1438 41.7332 43.8364 41.4756 46.1454 41.317C46.169 37.605 48.3911 34.9681 52.1698 34.6522ZM45.8235 43.1719C45.6561 45.2597 44.7162 50.5222 44.9444 52.3064C45.1838 54.178 46.5951 56.0249 48.5837 56.1546C49.7914 56.2334 51.0491 56.1472 52.2622 56.1485C54.1431 56.1505 56.3344 56.586 57.9564 55.3941C60.0974 53.747 59.7964 51.5344 59.6197 49.1803C59.4722 47.2135 59.2532 45.135 59.2204 43.1719L47.464 43.1707C46.9183 43.1704 46.3686 43.1495 45.8235 43.1719ZM51.9912 36.4678C49.5484 36.935 47.8284 38.7738 48.0222 41.317H52.9978C54.3249 41.3162 55.6686 41.2693 56.9937 41.317C56.9817 38.4359 54.9892 36.0681 51.9912 36.4678Z" fill="#7AF2A6"/>
<path d="M52.1684 46.3455C55.2369 45.972 56.3583 50.2759 53.4089 51.4737C53.4057 52.4346 53.7753 53.9671 52.7743 54.4488C52.5651 54.4673 52.3774 54.4741 52.1684 54.4488C51.0888 53.7685 51.6974 52.6366 51.4955 51.6172C51.4047 51.1587 50.1126 50.9803 49.8475 49.3228C49.6115 47.8471 50.7506 46.5662 52.1684 46.3455ZM52.469 48.1351C52.0338 48.2767 51.7998 48.4323 51.6299 48.8562C51.783 49.4253 51.9595 49.8001 52.5873 49.8367C53.6573 49.5463 53.3671 48.1077 52.469 48.1351Z" fill="#7AF2A6"/>
</svg>
