<svg width="73" height="72" viewBox="0 0 73 72" fill="none" xmlns="http://www.w3.org/2000/svg">
<path d="M11.3919 23.9408L55.6655 23.9418C56.7453 23.9417 57.8258 23.9294 58.9053 23.952C59.7894 23.9706 60.3107 23.7803 60.8732 24.5634C60.8957 24.9609 60.875 25.3684 60.8746 25.7669L60.876 29.7953C60.8798 30.1497 60.9047 30.5106 60.8732 30.8641C59.2581 32.3088 58.1323 34.0698 58.1404 36.2737C58.1483 38.415 58.0392 39.3267 59.384 40.7792C63.5161 45.2423 62.34 52.2197 57.4023 55.6192C54.0377 57.7738 49.3943 57.5042 46.2995 54.9717C44.7459 53.7005 43.1641 51.3964 42.9615 49.3581C42.0869 49.3117 41.1981 49.3573 40.3213 49.3578L13.3524 49.3597C12.3714 49.3606 11.3403 49.4137 10.3651 49.3172C9.65355 49.2467 9.48228 48.9146 9.4215 48.2403C9.32601 47.181 9.25624 44.0057 9.42275 42.961C9.65355 41.5133 13.5811 41.3248 13.0054 35.9532C12.6157 32.3175 9.47005 31.2697 9.39373 30.4169C9.35539 29.9886 9.37126 29.55 9.37134 29.1202L9.37269 27.0215C9.37467 24.7221 8.78298 23.9988 11.3919 23.9408ZM11.2234 25.7611V29.6939C18.2733 29.446 20.6156 37.6347 16.3016 42.147C14.7629 43.7562 13.2258 43.7602 11.2234 43.775C11.196 45.0159 11.224 46.2624 11.2234 47.504H42.8612C42.7367 45.1678 43.7014 42.7627 45.3006 41.0711C47.3501 39.0066 49.8629 37.8639 52.7966 37.8528L52.9166 37.8525C52.9221 37.1096 52.8618 36.35 52.933 35.6106C53.2273 32.5567 55.9775 29.8902 59.0357 29.6939V25.7611C56.074 25.7173 53.1044 25.761 50.1419 25.7611H18.2835C15.9347 25.761 13.5706 25.7051 11.2234 25.7611ZM51.9624 39.692C47.2034 40.446 43.8987 43.9596 44.7074 49.0054C45.3324 52.9059 48.9323 55.4186 52.7873 55.2329C62.3079 54.6394 62.8344 39.3445 51.9624 39.692ZM13.2448 31.5877C13.5734 32.1965 13.9774 32.7586 14.2547 33.3958C15.2275 35.6304 15.2356 38.9483 13.8154 41.0381C13.6221 41.3223 13.3939 41.5949 13.2448 41.9057C13.6722 41.7927 14.057 41.585 14.415 41.3283C17.7662 38.8031 17.0838 32.6427 13.2448 31.5877ZM57.5148 32.0404C55.6161 32.5219 54.6717 35.1493 54.7483 36.9292C54.7827 37.7299 54.7176 37.9147 55.4262 38.3627C55.802 38.4271 56.1145 38.532 56.4607 38.6896C56.062 36.8846 56.2248 34.1341 57.2674 32.5112C57.3305 32.413 57.5546 32.1418 57.5552 32.0414L57.5148 32.0404Z" fill="#7AF2A6"/>
<path d="M56.2785 42.9291C56.9416 43.0112 57.204 43.3802 57.4005 44.0037C56.9074 44.7608 56.1475 45.3762 55.5054 46.0018L51.1339 50.3576C49.2295 52.2814 49.4109 51.9174 47.3979 49.9102C46.7744 49.3024 45.7442 47.7156 47.3097 47.6513C48.0729 47.6199 48.9386 48.9418 49.4925 49.4544C50.2412 48.6595 55.4613 43.2005 56.2785 42.9291Z" fill="#7AF2A6"/>
<path d="M35.0748 27.9572C39.8676 27.873 44.4208 30.7751 44.9248 35.8005C45.4639 41.1755 41.3091 44.7594 36.2901 45.246C33.8576 45.2832 31.5177 44.6372 29.606 43.0744C26.1376 40.2393 25.3657 34.9896 28.2748 31.4694C30.0337 29.341 32.3467 28.2073 35.0748 27.9572ZM35.6057 29.7672C31.7101 29.8473 28.1984 32.7514 28.3036 36.809C28.4075 40.8155 32.1912 43.5177 35.9816 43.42C39.6055 43.5399 43.0593 40.5325 43.1434 36.867C43.2366 32.8046 39.5611 29.6623 35.6057 29.7672Z" fill="#7AF2A6"/>
<path d="M34.7659 31.4138C35.4269 31.3843 36.0591 31.3571 36.6882 31.5878C36.6533 31.7395 36.6105 31.8899 36.5706 32.0405C38.1803 32.9004 38.2073 32.384 39.0767 34.4905C36.0068 34.8833 37.4636 33.7956 36.0806 33.4968C35.3967 33.3491 34.3306 33.6166 34.1983 34.4306C34.0281 35.4775 36.1234 35.5921 36.7648 35.8178C39.5449 36.7963 39.9456 39.6332 37.3998 40.8778C37.0881 41.0302 36.7399 41.1188 36.4584 41.3284C36.5195 41.524 36.6 41.7258 36.6122 41.9314L36.5618 41.9613L36.4584 41.9057C35.9847 41.8537 35.4502 41.9035 34.9702 41.9057C34.9571 41.7089 34.95 41.5252 34.9702 41.3284C33.2863 40.5 32.6837 40.3906 32.0195 38.3627C32.6873 38.3258 33.3641 38.4115 34.031 38.3627C34.6119 40.2766 37.2516 39.8198 37.1675 38.4534C37.0877 37.1539 34.3676 37.4843 33.1166 36.2993C31.7892 35.0417 32.3947 32.7901 34.0443 32.1344C35.6514 31.4959 34.1854 31.8389 34.7659 31.4138Z" fill="#7AF2A6"/>
</svg>
