<svg width="64" height="64" viewBox="0 0 64 64" fill="none" xmlns="http://www.w3.org/2000/svg">
<path d="M56.1289 31.9258C56.1289 35.0944 55.5048 38.232 54.2922 41.1595C53.0796 44.0869 51.3023 46.7469 49.0617 48.9875C46.8211 51.228 44.1612 53.0054 41.2337 54.2179C38.3063 55.4305 35.1686 56.0547 32 56.0547C25.6006 56.0547 19.4633 53.5125 14.9383 48.9875C10.4132 44.4624 7.87109 38.3251 7.87109 31.9258C7.87109 25.5264 10.4132 19.3891 14.9383 14.8641C19.4633 10.339 25.6006 7.79688 32 7.79688C38.3994 7.79688 44.5366 10.339 49.0617 14.8641C53.5867 19.3891 56.1289 25.5264 56.1289 31.9258ZM54.5444 31.9258C54.5444 25.9466 52.1692 20.2123 47.9413 15.9844C43.7134 11.7565 37.9791 9.38132 32 9.38132C26.0208 9.38132 20.2866 11.7565 16.0587 15.9844C11.8307 20.2123 9.45554 25.9466 9.45554 31.9258C9.45554 37.9049 11.8307 43.6392 16.0587 47.8671C20.2866 52.095 26.0208 54.4702 32 54.4702C37.9791 54.4702 43.7134 52.095 47.9413 47.8671C52.1692 43.6392 54.5444 37.9049 54.5444 31.9258Z" fill="#7AF2A6"/>
<path d="M42.8896 18.5692C45.0036 20.0847 46.5221 22.0417 47.4451 24.4403C48.8155 28.0077 48.6984 31.4884 47.094 34.8825C45.5681 38.1121 43.0407 40.3847 39.5118 41.7003C39.5054 41.7027 39.4985 41.7039 39.4917 41.7036C39.4848 41.7034 39.4781 41.7018 39.4718 41.6989C39.4656 41.696 39.46 41.6918 39.4554 41.6867C39.4509 41.6816 39.4473 41.6756 39.4451 41.6692L38.9696 40.2736C38.9627 40.2542 38.9639 40.2328 38.9731 40.2141C38.9822 40.1954 38.9986 40.1808 39.0184 40.1736C43.7607 38.4803 46.814 34.1292 46.7896 29.118C46.7718 25.4514 44.934 21.9958 41.9629 19.8647C38.9896 17.7358 35.1251 17.1092 31.6473 18.2736C26.8962 19.8625 23.7584 24.1536 23.6807 29.1869C23.6806 29.2081 23.6724 29.2285 23.6579 29.2435C23.6433 29.2585 23.6235 29.2669 23.6029 29.2669L22.1273 29.2647C22.1204 29.2647 22.1136 29.2633 22.1072 29.2606C22.1009 29.2579 22.0952 29.2539 22.0904 29.249C22.0856 29.244 22.0819 29.2381 22.0795 29.2316C22.077 29.2252 22.0759 29.2183 22.0762 29.2114C22.1873 25.4469 23.5259 22.3225 26.0918 19.838C28.7896 17.2277 32.0473 15.9973 35.8651 16.1469C38.434 16.2477 40.7755 17.0551 42.8896 18.5692Z" fill="#7AF2A6"/>
<path d="M39.0183 23.2014L40.045 24.2502C40.0581 24.2636 40.0655 24.2815 40.0655 24.3002C40.0655 24.319 40.0581 24.3369 40.045 24.3502L35.4183 28.9814C35.4117 28.9882 35.4037 28.9937 35.395 28.9974C35.3862 29.0011 35.3767 29.003 35.3672 29.003C35.3577 29.003 35.3482 29.0011 35.3394 28.9974C35.3307 28.9937 35.3227 28.9882 35.3161 28.9814L31.5139 25.1658C31.5004 25.1528 31.4926 25.135 31.4922 25.1163C31.4918 25.0975 31.4988 25.0794 31.5116 25.0658L32.4716 24.0169C32.4782 24.0096 32.4861 24.0036 32.495 23.9995C32.5039 23.9954 32.5136 23.9932 32.5234 23.9929C32.5332 23.9927 32.5429 23.9946 32.552 23.9983C32.5611 24.002 32.5693 24.0076 32.5761 24.0147L35.2983 26.7391C35.3049 26.746 35.3129 26.7514 35.3217 26.7552C35.3304 26.7589 35.3399 26.7608 35.3494 26.7608C35.359 26.7608 35.3684 26.7589 35.3772 26.7552C35.386 26.7514 35.3939 26.746 35.4005 26.7391L38.9161 23.2014C38.9227 23.1945 38.9307 23.1891 38.9394 23.1853C38.9482 23.1816 38.9577 23.1797 38.9672 23.1797C38.9767 23.1797 38.9862 23.1816 38.995 23.1853C39.0037 23.1891 39.0117 23.1945 39.0183 23.2014Z" fill="#7AF2A6"/>
<path d="M37.5828 42.326C37.5828 42.5983 37.4746 42.8595 37.2821 43.052C37.0896 43.2445 36.8284 43.3527 36.5561 43.3527H17.2806C17.0083 43.3527 16.7471 43.2445 16.5546 43.052C16.3621 42.8595 16.2539 42.5983 16.2539 42.326V31.7571C16.2539 31.4848 16.3621 31.2237 16.5546 31.0312C16.7471 30.8386 17.0083 30.7305 17.2806 30.7305H36.5561C36.8284 30.7305 37.0896 30.8386 37.2821 31.0312C37.4746 31.2237 37.5828 31.4848 37.5828 31.7571V42.326ZM36.2406 32.1394C36.2406 32.1274 36.2382 32.1155 36.2336 32.1045C36.2291 32.0934 36.2223 32.0834 36.2139 32.0749C36.2054 32.0665 36.1954 32.0598 36.1843 32.0552C36.1733 32.0506 36.1614 32.0482 36.1495 32.0482H17.625C17.6009 32.0482 17.5777 32.0578 17.5606 32.0749C17.5435 32.092 17.5339 32.1152 17.5339 32.1394V41.966C17.5339 41.9902 17.5435 42.0134 17.5606 42.0304C17.5777 42.0475 17.6009 42.0571 17.625 42.0571H36.1495C36.1614 42.0571 36.1733 42.0548 36.1843 42.0502C36.1954 42.0456 36.2054 42.0389 36.2139 42.0304C36.2223 42.022 36.2291 42.0119 36.2336 42.0009C36.2382 41.9898 36.2406 41.978 36.2406 41.966V32.1394Z" fill="#7AF2A6"/>
<path d="M27.2594 33.6449C28.0461 33.7723 28.5594 34.1745 28.7994 34.8516C28.8942 35.1212 28.8142 35.3316 28.5594 35.4827C28.5105 35.5123 28.4483 35.5308 28.3727 35.5383C28.2726 35.5493 28.1714 35.5282 28.0836 35.4779C27.9958 35.4277 27.9259 35.3508 27.8838 35.2583C27.7313 34.919 27.6238 34.722 27.5616 34.6671C27.4475 34.5634 27.3401 34.5353 27.2394 34.5827C27.1742 34.6138 27.1416 34.6657 27.1416 34.7383V35.9205C27.1415 35.986 27.1636 36.0496 27.2044 36.1009C27.2452 36.1522 27.3022 36.1881 27.3661 36.2027C27.6875 36.2753 28.0105 36.4064 28.335 36.596C28.6313 36.7679 28.8275 37.022 28.9238 37.3583C29.3083 38.6849 28.5172 39.5338 27.2438 39.7471C27.1683 39.759 27.1305 39.8034 27.1305 39.8805V40.6583C27.1304 40.7107 27.1148 40.762 27.0855 40.8055C27.0562 40.849 27.0146 40.8829 26.9661 40.9027C26.9335 40.916 26.9083 40.9271 26.8905 40.936C26.8671 40.9469 26.8413 40.9516 26.8155 40.9499C26.7898 40.9481 26.7649 40.9398 26.7431 40.9259C26.7214 40.9119 26.7036 40.8927 26.6913 40.87C26.679 40.8473 26.6726 40.8219 26.6727 40.796V39.896C26.6727 39.7968 26.6231 39.7405 26.5238 39.7271C25.8675 39.6442 25.3675 39.3442 25.0238 38.8271C24.7527 38.4183 24.5616 37.4805 25.3416 37.5516C25.4454 37.5613 25.5439 37.6024 25.6241 37.6694C25.7042 37.7365 25.7622 37.8263 25.7905 37.9271C25.9061 38.3301 26.1231 38.6523 26.4416 38.8938C26.4631 38.9099 26.4886 38.9197 26.5153 38.9221C26.542 38.9245 26.5689 38.9194 26.5929 38.9074C26.6169 38.8954 26.6371 38.877 26.6512 38.8542C26.6653 38.8314 26.6727 38.8051 26.6727 38.7783V37.1649C26.6728 37.1318 26.6626 37.0995 26.6434 37.0724C26.6243 37.0453 26.5973 37.0248 26.5661 37.0138C25.6194 36.6916 24.7794 36.3249 24.9327 35.1271C25.0409 34.2753 25.5727 33.7908 26.5283 33.6738C26.6453 33.659 26.695 33.5931 26.6772 33.476C26.6461 33.276 26.6587 33.1138 26.715 32.9894C26.749 32.9138 26.8075 32.8738 26.8905 32.8694C26.9631 32.8664 27.0305 32.8931 27.0927 32.9494C27.1102 32.9648 27.1242 32.9836 27.1337 33.0047C27.1433 33.0258 27.1483 33.0486 27.1483 33.0716V33.5138C27.1483 33.5894 27.1853 33.6331 27.2594 33.6449ZM26.6616 34.5471C26.6616 34.5224 26.6547 34.4982 26.6415 34.4772C26.6283 34.4563 26.6095 34.4395 26.5872 34.4288C26.5649 34.4181 26.54 34.414 26.5154 34.4168C26.4908 34.4197 26.4676 34.4294 26.4483 34.4449L25.9927 34.8005C25.9762 34.8137 25.9632 34.8307 25.9547 34.85C25.9461 34.8694 25.9424 34.8905 25.9438 34.9116L25.975 35.5183C25.9757 35.5384 25.9811 35.5581 25.9908 35.5759C26.0004 35.5936 26.014 35.6089 26.0305 35.6205L26.475 35.9271C26.4947 35.9405 26.5177 35.9482 26.5415 35.9494C26.5652 35.9506 26.5889 35.9454 26.6099 35.9342C26.6309 35.923 26.6485 35.9063 26.6607 35.8859C26.673 35.8654 26.6794 35.8421 26.6794 35.8182L26.6616 34.5471ZM27.1394 37.2294L27.1616 38.936C27.1616 38.9396 27.163 38.943 27.1655 38.9455C27.168 38.948 27.1714 38.9494 27.175 38.9494H27.1838C27.2938 38.948 27.4024 38.9243 27.5033 38.8797C27.6043 38.8351 27.6957 38.7705 27.7723 38.6896C27.8489 38.6087 27.9092 38.513 27.9497 38.4081C27.9902 38.3032 28.0101 38.1911 28.0083 38.0783V38.0605C28.0047 37.8334 27.9136 37.617 27.7549 37.4587C27.5961 37.3004 27.3828 37.2131 27.1616 37.216H27.1527C27.1492 37.216 27.1458 37.2174 27.1433 37.2199C27.1408 37.2224 27.1394 37.2258 27.1394 37.2294Z" fill="#7AF2A6"/>
<path d="M23.3353 32.9695L19.1398 32.9842C18.7962 32.9854 18.5186 33.2649 18.5198 33.6085L18.5201 33.6974C18.5213 34.0411 18.8008 34.3187 19.1445 34.3175L23.34 34.3028C23.6836 34.3016 23.9612 34.0221 23.96 33.6784L23.9597 33.5896C23.9585 33.2459 23.679 32.9683 23.3353 32.9695Z" fill="#7AF2A6"/>
<path d="M34.822 32.9837L30.5953 32.9911C30.2407 32.9917 29.9536 33.2797 29.9542 33.6344L29.9543 33.6744C29.9549 34.0291 30.243 34.3161 30.5977 34.3155L34.8243 34.3081C35.179 34.3075 35.466 34.0195 35.4654 33.6648L35.4653 33.6248C35.4647 33.2701 35.1767 32.9831 34.822 32.9837Z" fill="#7AF2A6"/>
<path d="M23.3818 39.9082H19.1062C18.7822 39.9082 18.5195 40.1709 18.5195 40.4949V40.6149C18.5195 40.9389 18.7822 41.2015 19.1062 41.2015H23.3818C23.7058 41.2015 23.9684 40.9389 23.9684 40.6149V40.4949C23.9684 40.1709 23.7058 39.9082 23.3818 39.9082Z" fill="#7AF2A6"/>
<path d="M34.8476 39.9094L30.572 39.9169C30.2345 39.9175 29.9614 40.1916 29.962 40.5291L29.9621 40.6002C29.9627 40.9377 30.2368 41.2108 30.5743 41.2102L34.8499 41.2028C35.1874 41.2022 35.4605 40.9281 35.4599 40.5906L35.4598 40.5195C35.4592 40.182 35.1851 39.9089 34.8476 39.9094Z" fill="#7AF2A6"/>
</svg>
